<svg width="45" height="47" viewBox="0 0 45 47" fill="none" xmlns="http://www.w3.org/2000/svg">
<path d="M6.74934 6.60028C6.74605 6.30191 6.62438 6.01707 6.41108 5.80841C6.19778 5.59975 5.91033 5.48437 5.61196 5.48766C5.31359 5.49094 5.02875 5.61261 4.82009 5.82591C4.61143 6.03921 4.49605 6.32666 4.49934 6.62503V40.375C4.49934 40.6734 4.61786 40.9595 4.82884 41.1705C5.03982 41.3815 5.32597 41.5 5.62434 41.5H39.3743C39.6727 41.5 39.9589 41.3815 40.1698 41.1705C40.3808 40.9595 40.4993 40.6734 40.4993 40.375C40.4993 40.0767 40.3808 39.7905 40.1698 39.5795C39.9589 39.3686 39.6727 39.25 39.3743 39.25H6.74934V6.60028ZM35.9993 37V13.375C35.999 13.1633 35.939 12.956 35.8262 12.7769C35.7133 12.5978 35.5522 12.4542 35.3614 12.3625C35.1706 12.2709 34.9578 12.2349 34.7474 12.2588C34.5371 12.2827 34.3378 12.3654 34.1723 12.4975L23.5186 21.0183L16.3073 16.8985C16.1544 16.8113 15.9831 16.7611 15.8072 16.7521C15.6314 16.7431 15.4559 16.7756 15.2948 16.8468L8.99934 19.6435V37H35.9993Z" fill="#185CFF"/>
</svg>
