<svg width="45" height="47" viewBox="0 0 45 47" fill="none" xmlns="http://www.w3.org/2000/svg">
<path d="M21.0938 33.3438V34.75C21.0938 35.123 20.9456 35.4806 20.6819 35.7444C20.4181 36.0081 20.0605 36.1562 19.6875 36.1562H16.875V37.5625C16.875 38.3084 16.5787 39.0238 16.0512 39.5512C15.5238 40.0787 14.8084 40.375 14.0625 40.375H8.4375C7.69158 40.375 6.97621 40.0787 6.44876 39.5512C5.92132 39.0238 5.625 38.3084 5.625 37.5625V33.9259C5.62516 33.1801 5.92158 32.4648 6.44906 31.9375L17.3334 21.0531C16.666 18.7869 16.729 16.3681 17.5134 14.1397C18.2978 11.9113 19.7638 9.98635 21.7036 8.63784C23.6433 7.28933 25.9584 6.58569 28.3204 6.6267C30.6825 6.6677 32.9718 7.45126 34.8635 8.86627C36.7553 10.2813 38.1536 12.2559 38.8602 14.5102C39.5668 16.7645 39.5458 19.1841 38.8002 21.4257C38.0545 23.6674 36.6221 25.6175 34.706 26.9994C32.7899 28.3814 30.4874 29.125 28.125 29.125H25.3097V31.9375C25.3097 32.3105 25.1615 32.6681 24.8978 32.9319C24.6341 33.1956 24.2764 33.3438 23.9034 33.3438H21.0909H21.0938ZM30.9375 17.875C31.6834 17.875 32.3988 17.5787 32.9262 17.0512C33.4537 16.5238 33.75 15.8084 33.75 15.0625C33.75 14.3166 33.4537 13.6012 32.9262 13.0738C32.3988 12.5463 31.6834 12.25 30.9375 12.25C30.1916 12.25 29.4762 12.5463 28.9488 13.0738C28.4213 13.6012 28.125 14.3166 28.125 15.0625C28.125 15.8084 28.4213 16.5238 28.9488 17.0512C29.4762 17.5787 30.1916 17.875 30.9375 17.875Z" fill="#185CFF"/>
</svg>
