<svg width="45" height="47" viewBox="0 0 45 47" fill="none" xmlns="http://www.w3.org/2000/svg">
<path d="M13.7918 7.28421C15.3262 6.12212 17.1994 5.49534 19.1243 5.49996C19.6643 5.49996 20.094 5.78121 20.3438 5.97471C20.6228 6.19521 20.8838 6.47646 21.1178 6.75771C21.2837 6.95923 21.3744 7.21218 21.3743 7.47321V15.625H18.933C18.6676 14.8743 18.1454 14.2417 17.4587 13.8389C16.772 13.436 15.965 13.2889 15.1803 13.4236C14.3956 13.5582 13.6838 13.9659 13.1706 14.5746C12.6575 15.1833 12.376 15.9538 12.376 16.75C12.376 17.5461 12.6575 18.3166 13.1706 18.9253C13.6838 19.534 14.3956 19.9417 15.1803 20.0764C15.965 20.211 16.772 20.0639 17.4587 19.661C18.1454 19.2582 18.6676 18.6256 18.933 17.875H21.3743V39.0587C21.3744 39.2253 21.3375 39.3898 21.2663 39.5404C21.1951 39.691 21.0913 39.8239 20.9625 39.9295C19.923 40.78 18.5325 41.5 16.8743 41.5C14.2058 41.5 12.219 40.1545 10.9343 38.5457C10.0112 37.3995 9.37901 36.0471 9.09152 34.6037C8.21735 34.3706 7.40683 33.9438 6.72002 33.355C5.47802 32.2907 4.49927 30.565 4.49927 28C4.49927 26.7467 4.58252 25.615 4.76927 24.625H11.8118C13.2428 24.625 14.4218 25.6937 14.6018 27.0752C13.8535 27.346 13.225 27.8725 12.8272 28.5616C12.4294 29.2508 12.288 30.0584 12.4278 30.8417C12.5676 31.6251 12.9797 32.3339 13.5913 32.8429C14.2029 33.3519 14.9747 33.6285 15.7704 33.6237C16.5662 33.619 17.3346 33.3332 17.9401 32.8169C18.5456 32.3006 18.9492 31.587 19.0796 30.802C19.2101 30.017 19.0589 29.2112 18.6529 28.5268C18.2469 27.8425 17.6122 27.3235 16.8608 27.0617C16.7659 25.7875 16.1928 24.5964 15.2564 23.7271C14.3199 22.8579 13.0895 22.3748 11.8118 22.375H5.49152C5.83577 21.7045 6.29702 21.1375 6.89777 20.7347C7.04973 20.6341 7.2092 20.5454 7.37477 20.4692C6.73577 18.5972 6.90227 16.4057 7.51877 14.6845C7.91252 13.5775 8.53802 12.5312 9.39752 11.8337C9.96452 11.3725 10.6395 11.0687 11.3775 11.0102C11.7015 9.47346 12.6128 8.20221 13.794 7.28421H13.7918ZM23.6243 33.625H25.3118C26.6544 33.625 27.9421 33.0916 28.8915 32.1422C29.8409 31.1928 30.3743 29.9051 30.3743 28.5625V24.4337C31.1249 24.1683 31.7575 23.6461 32.1603 22.9594C32.5632 22.2727 32.7103 21.4657 32.5757 20.681C32.441 19.8963 32.0333 19.1845 31.4246 18.6713C30.8159 18.1582 30.0454 17.8767 29.2493 17.8767C28.4531 17.8767 27.6826 18.1582 27.0739 18.6713C26.4652 19.1845 26.0575 19.8963 25.9229 20.681C25.7882 21.4657 25.9353 22.2727 26.3382 22.9594C26.741 23.6461 27.3736 24.1683 28.1243 24.4337V28.5625C28.1243 30.115 26.8643 31.375 25.3118 31.375H23.6243V7.47321C23.6242 7.21218 23.7148 6.95923 23.8808 6.75771C24.1125 6.47646 24.3758 6.19521 24.6548 5.97471C24.9023 5.78121 25.332 5.49996 25.8743 5.49996C27.7991 5.49534 29.6723 6.12212 31.2068 7.28421C32.388 8.20221 33.2993 9.47346 33.621 11.0102C34.359 11.0665 35.034 11.3725 35.601 11.8337C36.4605 12.5312 37.086 13.5775 37.4798 14.6845C38.0963 16.4057 38.2628 18.5995 37.6238 20.467C37.7858 20.5435 37.9455 20.6335 38.1008 20.737C38.7195 21.1487 39.1898 21.7382 39.5363 22.4335C40.218 23.7947 40.4993 25.6937 40.4993 28C40.4993 30.5672 39.5205 32.2907 38.2785 33.355C37.5917 33.9438 36.7812 34.3706 35.907 34.6037C35.682 35.8592 35.052 37.3127 34.0643 38.5457C32.7818 40.1545 30.7928 41.5 28.1243 41.5C26.4683 41.5 25.0755 40.78 24.0383 39.9295C23.909 39.8241 23.8049 39.6913 23.7333 39.5407C23.6617 39.3901 23.6244 39.2255 23.6243 39.0587V33.625ZM15.7493 15.625C15.4509 15.625 15.1648 15.7435 14.9538 15.9545C14.7428 16.1654 14.6243 16.4516 14.6243 16.75C14.6243 17.0483 14.7428 17.3345 14.9538 17.5455C15.1648 17.7564 15.4509 17.875 15.7493 17.875C16.0476 17.875 16.3338 17.7564 16.5448 17.5455C16.7557 17.3345 16.8743 17.0483 16.8743 16.75C16.8743 16.4516 16.7557 16.1654 16.5448 15.9545C16.3338 15.7435 16.0476 15.625 15.7493 15.625ZM15.7493 29.125C15.4509 29.125 15.1648 29.2435 14.9538 29.4545C14.7428 29.6654 14.6243 29.9516 14.6243 30.25C14.6243 30.5483 14.7428 30.8345 14.9538 31.0455C15.1648 31.2564 15.4509 31.375 15.7493 31.375C16.0476 31.375 16.3338 31.2564 16.5448 31.0455C16.7557 30.8345 16.8743 30.5483 16.8743 30.25C16.8743 29.9516 16.7557 29.6654 16.5448 29.4545C16.3338 29.2435 16.0476 29.125 15.7493 29.125ZM29.2493 22.375C29.5476 22.375 29.8338 22.2564 30.0448 22.0455C30.2557 21.8345 30.3743 21.5483 30.3743 21.25C30.3743 20.9516 30.2557 20.6654 30.0448 20.4545C29.8338 20.2435 29.5476 20.125 29.2493 20.125C28.9509 20.125 28.6647 20.2435 28.4538 20.4545C28.2428 20.6654 28.1243 20.9516 28.1243 21.25C28.1243 21.5483 28.2428 21.8345 28.4538 22.0455C28.6647 22.2564 28.9509 22.375 29.2493 22.375Z" fill="#185CFF"/>
</svg>
