<svg width="45" height="47" viewBox="0 0 45 47" fill="none" xmlns="http://www.w3.org/2000/svg">
<path d="M31.4989 7.1875C31.4989 6.73995 31.6767 6.31072 31.9931 5.99426C32.3096 5.67779 32.7388 5.5 33.1864 5.5H38.8114C39.2589 5.5 39.6882 5.67779 40.0046 5.99426C40.3211 6.31072 40.4989 6.73995 40.4989 7.1875V12.8125C40.4989 13.2601 40.3211 13.6893 40.0046 14.0057C39.6882 14.3222 39.2589 14.5 38.8114 14.5C38.3638 14.5 37.9346 14.3222 37.6181 14.0057C37.3017 13.6893 37.1239 13.2601 37.1239 12.8125V11.26L27.0664 21.3175C26.75 21.6335 26.3211 21.811 25.8739 21.811C25.4267 21.811 24.9978 21.6335 24.6814 21.3175L19.1239 15.76L9.62888 25.255C9.47439 25.4208 9.28809 25.5538 9.08109 25.646C8.87409 25.7382 8.65064 25.7878 8.42406 25.7918C8.19748 25.7958 7.97241 25.7541 7.76229 25.6693C7.55216 25.5844 7.36129 25.4581 7.20104 25.2978C7.0408 25.1376 6.91448 24.9467 6.8296 24.7366C6.74473 24.5265 6.70305 24.3014 6.70705 24.0748C6.71105 23.8482 6.76064 23.6248 6.85287 23.4178C6.94511 23.2108 7.07809 23.0245 7.24388 22.87L17.9314 12.1825C18.2478 11.8665 18.6767 11.689 19.1239 11.689C19.5711 11.689 20 11.8665 20.3164 12.1825L25.8739 17.74L34.7389 8.875H33.1864C32.7388 8.875 32.3096 8.69721 31.9931 8.38074C31.6767 8.06428 31.4989 7.63505 31.4989 7.1875ZM8.43638 32.5C8.88393 32.5 9.31316 32.6778 9.62962 32.9943C9.94609 33.3107 10.1239 33.7399 10.1239 34.1875V39.8125C10.1239 40.2601 9.94609 40.6893 9.62962 41.0057C9.31316 41.3222 8.88393 41.5 8.43638 41.5C7.98883 41.5 7.55961 41.3222 7.24314 41.0057C6.92667 40.6893 6.74888 40.2601 6.74888 39.8125V34.1875C6.74888 33.7399 6.92667 33.3107 7.24314 32.9943C7.55961 32.6778 7.98883 32.5 8.43638 32.5ZM19.1239 27.4375C19.1239 26.9899 18.9461 26.5607 18.6296 26.2443C18.3132 25.9278 17.8839 25.75 17.4364 25.75C16.9888 25.75 16.5596 25.9278 16.2431 26.2443C15.9267 26.5607 15.7489 26.9899 15.7489 27.4375V39.8125C15.7489 40.2601 15.9267 40.6893 16.2431 41.0057C16.5596 41.3222 16.9888 41.5 17.4364 41.5C17.8839 41.5 18.3132 41.3222 18.6296 41.0057C18.9461 40.6893 19.1239 40.2601 19.1239 39.8125V27.4375ZM26.4364 30.25C26.8839 30.25 27.3132 30.4278 27.6296 30.7443C27.9461 31.0607 28.1239 31.4899 28.1239 31.9375V39.8125C28.1239 40.2601 27.9461 40.6893 27.6296 41.0057C27.3132 41.3222 26.8839 41.5 26.4364 41.5C25.9888 41.5 25.5596 41.3222 25.2431 41.0057C24.9267 40.6893 24.7489 40.2601 24.7489 39.8125V31.9375C24.7489 31.4899 24.9267 31.0607 25.2431 30.7443C25.5596 30.4278 25.9888 30.25 26.4364 30.25ZM37.1239 22.9375C37.1239 22.4899 36.9461 22.0607 36.6296 21.7443C36.3132 21.4278 35.8839 21.25 35.4364 21.25C34.9888 21.25 34.5596 21.4278 34.2431 21.7443C33.9267 22.0607 33.7489 22.4899 33.7489 22.9375V39.8125C33.7489 40.2601 33.9267 40.6893 34.2431 41.0057C34.5596 41.3222 34.9888 41.5 35.4364 41.5C35.8839 41.5 36.3132 41.3222 36.6296 41.0057C36.9461 40.6893 37.1239 40.2601 37.1239 39.8125V22.9375Z" fill="#185CFF"/>
</svg>
