<svg width="86" height="73" viewBox="0 0 86 73" fill="none" xmlns="http://www.w3.org/2000/svg">
<path d="M79.3346 40.2595C79.3346 45.5922 75.7976 50.922 68.7618 54.9913C54.6638 63.1327 31.8072 63.1341 17.7092 54.9913C10.1857 50.6449 6.71792 44.858 7.22636 39.167C7.18184 39.3719 7.14839 39.5791 7.12615 39.7877C6.44822 47.217 8.73402 52.3197 17.7092 57.4977C31.8072 65.6406 54.6638 65.6391 68.7618 57.4977C76.8336 52.8343 79.4997 46.9206 79.3346 40.2595Z" fill="url(#paint0_linear_220_14886)"/>
<g filter="url(#filter0_di_220_14886)">
<path d="M43.237 61.0982C63.1744 61.0982 79.3368 51.7632 79.3368 40.2478C79.3368 28.7325 63.1744 19.3975 43.237 19.3975C23.2996 19.3975 7.13721 28.7325 7.13721 40.2478C7.13721 51.7632 23.2996 61.0982 43.237 61.0982Z" fill="url(#paint1_radial_220_14886)"/>
<path d="M79.2713 40.2478C79.2713 45.9722 75.2535 51.167 68.7306 54.9345C62.2095 58.7009 53.1963 61.0326 43.237 61.0326C33.2777 61.0326 24.2645 58.7009 17.7434 54.9345C11.2205 51.167 7.20276 45.9722 7.20276 40.2478C7.20276 34.5235 11.2205 29.3286 17.7434 25.5612C24.2645 21.7947 33.2777 19.463 43.237 19.463C53.1963 19.463 62.2095 21.7947 68.7306 25.5612C75.2535 29.3286 79.2713 34.5235 79.2713 40.2478Z" stroke="url(#paint2_linear_220_14886)" stroke-width="0.131111" stroke-linejoin="round"/>
</g>
<g style="mix-blend-mode:multiply" filter="url(#filter1_f_220_14886)">
<path d="M21.4084 32.9218H34.5103C35.2015 32.9351 35.8846 32.7703 36.495 32.4431C36.7209 32.3406 36.916 32.1798 37.0606 31.977C37.2053 31.7742 37.2943 31.5366 37.3187 31.2881L37.3061 29.3364C37.3061 17.5435 37.3039 14.2171 37.3039 29.3295C37.2796 29.5782 37.1907 29.8161 37.0461 30.0191C36.9015 30.2221 36.7062 30.383 36.4802 30.4856C35.8695 30.8119 35.1866 30.9766 34.4955 30.9644H21.4084" fill="#083090" fill-opacity="0.4"/>
<path d="M21.4101 43.9731C21.4201 44.202 21.3552 44.4279 21.2255 44.6161C21.0678 44.8422 20.8624 45.0304 20.6239 45.1671C20.3357 45.3352 20.0243 45.4594 19.7 45.5357C18.9779 45.7087 18.2255 45.7087 17.5034 45.5357C17.1794 45.4596 16.8684 45.3354 16.5806 45.1671C16.3416 45.0308 16.1358 44.8425 15.9779 44.6161C15.8741 44.4581 15.8147 44.2749 15.8059 44.0857V45.9226C15.7949 46.1516 15.8598 46.3777 15.9904 46.5655C16.1485 46.791 16.3539 46.9788 16.592 47.1154C16.8801 47.284 17.1915 47.4086 17.516 47.4851C18.2381 47.6581 18.9904 47.6581 19.7125 47.4851C20.0366 47.4086 20.3476 47.284 20.6353 47.1154C20.874 46.9791 21.0798 46.7913 21.238 46.5655C21.3676 46.3773 21.4324 46.1514 21.4226 45.9226" fill="#083090" fill-opacity="0.4"/>
<path d="M37.9923 54.7696C37.3767 55.0851 36.6959 55.2495 36.0054 55.2495C35.3148 55.2495 34.634 55.0851 34.0184 54.7696L27.4197 50.9168C27.1935 50.8146 26.9742 50.6539 26.8295 50.451C26.6848 50.2482 26.596 50.0104 26.572 49.7617C26.572 49.7617 26.5846 51.2818 26.5846 51.7134C26.6082 51.9621 26.6968 52.2001 26.8413 52.4032C26.9857 52.6062 27.181 52.7671 27.4071 52.8695C27.4071 52.8695 33.4166 56.41 34.0321 56.7247C34.6477 57.0395 35.3282 57.2035 36.0185 57.2035C36.7087 57.2035 37.3893 57.0395 38.0048 56.7247C38.2312 56.6225 38.4267 56.4617 38.5713 56.2586C38.716 56.0555 38.8048 55.8175 38.8285 55.5686C38.8285 55.1347 38.816 54.5262 38.816 53.6169C38.7917 53.8652 38.7026 54.1025 38.558 54.3049C38.4133 54.5073 38.2182 54.6676 37.9923 54.7696Z" fill="#083090" fill-opacity="0.4"/>
<path d="M70.6039 35.1155C70.5807 35.3644 70.4923 35.6025 70.3478 35.8057C70.2032 36.0088 70.0078 36.1696 69.7813 36.2716C69.1656 36.5864 68.4849 36.7504 67.7944 36.7504C67.104 36.7504 66.4232 36.5864 65.8075 36.2716L45.9648 24.6993C45.7431 24.5974 45.5304 24.4448 45.3869 24.2463C45.2434 24.0478 45.1496 23.826 45.1213 23.582C45.1213 23.9265 45.1305 25.1434 45.1305 25.5131C45.1539 25.7619 45.2424 25.9999 45.3869 26.203C45.5314 26.4061 45.953 26.6692 45.953 26.6692L65.8189 38.2291C66.4346 38.5438 67.1153 38.7079 67.8058 38.7079C68.4962 38.7079 69.177 38.5438 69.7927 38.2291C70.019 38.1269 70.2144 37.966 70.3589 37.7629C70.5034 37.5598 70.5919 37.3217 70.6153 37.073C70.6176 36.639 70.6039 35.1155 70.6039 35.1155Z" fill="#083090" fill-opacity="0.4"/>
<path d="M59.1747 42.4227C58.559 42.7375 57.8907 42.918 57.2002 42.918C56.5098 42.918 55.829 42.754 55.2133 42.4392L45.9483 37.0187C45.7218 36.9167 45.5198 36.7805 45.3753 36.5774C45.2307 36.3742 45.1423 36.1361 45.1191 35.8872C45.1191 35.8872 45.1305 37.4084 45.1305 37.8389C45.1543 38.0878 45.243 38.3258 45.3877 38.5289C45.5324 38.7319 45.9542 38.995 45.9542 38.995C45.9542 38.995 54.6101 44.0762 55.2258 44.3909C55.8416 44.7057 56.5223 44.8697 57.2127 44.8697C57.9032 44.8697 58.5839 44.7057 59.1997 44.3909C59.4258 44.2885 59.6211 44.1276 59.7655 43.9246C59.91 43.7215 59.9986 43.4835 60.0222 43.2348C60.0222 42.8009 60.0097 41.2831 60.0097 41.2831C59.9863 41.5319 59.8978 41.77 59.7533 41.9731C59.6088 42.1762 59.401 42.3205 59.1747 42.4227Z" fill="#083090" fill-opacity="0.4"/>
<path d="M48.5888 48.6044C47.973 48.9192 47.2923 49.0833 46.6018 49.0833C45.9114 49.0833 45.2307 48.9192 44.6149 48.6044L30.0676 40.1087C29.8414 40.0063 29.6231 39.865 29.4786 39.6619C29.3342 39.4588 29.2456 39.2209 29.2219 38.9722C29.2219 38.9722 29.2345 40.4934 29.2345 40.9239C29.2583 41.1724 29.347 41.4101 29.4914 41.613C29.6359 41.8158 29.831 41.9765 30.057 42.0788C30.057 42.0788 44.0117 50.2448 44.6274 50.5596C45.2432 50.8744 45.9239 51.0384 46.6144 51.0384C47.3048 51.0384 47.9855 50.8744 48.6013 50.5596C48.8275 50.4572 49.0227 50.2963 49.1672 50.0932C49.3116 49.8902 49.4002 49.6522 49.4239 49.4035C49.4239 48.9695 49.4113 47.4518 49.4113 47.4518C49.3871 47.6999 49.2983 47.9371 49.1538 48.1395C49.0094 48.342 48.8145 48.5023 48.5888 48.6044Z" fill="#083090" fill-opacity="0.4"/>
</g>
<g filter="url(#filter2_b_220_14886)">
<path d="M25.8997 16.8865C26.5153 17.202 27.1961 17.3664 27.8866 17.3664C28.5772 17.3664 29.258 17.202 29.8736 16.8865L31.6885 15.8303V13.8694L29.8619 14.8981C29.2461 15.2129 28.5684 15.3827 27.8779 15.3827C27.1875 15.3827 26.5098 15.225 25.894 14.9102C25.6679 14.8078 25.4854 14.6589 25.3409 14.4558C25.1965 14.2528 25.0871 14.0251 25.0635 13.7764C25.0635 13.7764 25.076 15.2976 25.076 15.7281C25.0992 15.9774 25.1876 16.216 25.3324 16.4196C25.4771 16.6231 25.6729 16.7842 25.8997 16.8865Z" fill="url(#paint3_linear_220_14886)"/>
<path d="M21.4084 31.2382H34.5103C35.2015 31.2515 35.8846 31.0867 36.495 30.7595C36.7209 30.657 36.916 30.4962 37.0606 30.2934C37.2053 30.0906 37.2943 29.853 37.3187 29.6045L37.3061 27.6528V15.8186L39.1438 16.892C39.7596 17.2068 40.4403 17.3708 41.1307 17.3708C41.8212 17.3708 42.5019 17.2068 43.1177 16.892C43.344 16.7897 43.5395 16.6289 43.6842 16.4258C43.8289 16.2228 43.9176 15.9847 43.9414 15.7359C43.9414 15.3031 43.9288 13.7842 43.9288 13.7842C43.9051 14.033 43.7945 14.2562 43.6499 14.4593C43.5052 14.6623 43.3066 14.8189 43.0802 14.9212C42.4647 15.2359 41.8079 15.3831 41.1176 15.3831C40.4273 15.3831 39.7527 15.2314 39.1372 14.9167L37.3039 13.8538V27.6459C37.2796 27.8946 37.1907 28.1325 37.0461 28.3355C36.9015 28.5385 36.7062 28.6994 36.4802 28.802C35.8695 29.1283 35.1866 29.2931 34.4955 29.2808H21.4084" fill="url(#paint4_linear_220_14886)"/>
<path d="M21.4101 42.29C21.4201 42.5189 21.3552 42.7448 21.2255 42.933C21.0678 43.1591 20.8624 43.3473 20.6239 43.484C20.3357 43.6521 20.0243 43.7763 19.7 43.8526C18.9779 44.0256 18.2255 44.0256 17.5034 43.8526C17.1794 43.7765 16.8684 43.6523 16.5806 43.484C16.3416 43.3477 16.1358 43.1594 15.9779 42.933C15.8741 42.775 15.8147 42.5918 15.8059 42.4025V44.2395C15.7949 44.4685 15.8598 44.6946 15.9904 44.8824C16.1485 45.1079 16.3539 45.2957 16.592 45.4323C16.8801 45.6009 17.1915 45.7255 17.516 45.802C18.2381 45.975 18.9904 45.975 19.7125 45.802C20.0366 45.7255 20.3476 45.6009 20.6353 45.4323C20.874 45.296 21.0798 45.1082 21.238 44.8824C21.3676 44.6942 21.4324 44.4683 21.4226 44.2395" fill="url(#paint5_linear_220_14886)"/>
<path d="M37.9923 53.086C37.3767 53.4015 36.6959 53.5659 36.0054 53.5659C35.3148 53.5659 34.634 53.4015 34.0184 53.086L27.4197 49.2332C27.1935 49.131 26.9742 48.9703 26.8295 48.7674C26.6848 48.5646 26.596 48.3268 26.572 48.0781C26.572 48.0781 26.5846 49.5982 26.5846 50.0298C26.6082 50.2785 26.6968 50.5165 26.8413 50.7196C26.9857 50.9226 27.181 51.0835 27.4071 51.1859C27.4071 51.1859 33.4166 54.7264 34.0321 55.0411C34.6477 55.3559 35.3282 55.5199 36.0185 55.5199C36.7087 55.5199 37.3893 55.3559 38.0048 55.0411C38.2312 54.9389 38.4267 54.7781 38.5713 54.575C38.716 54.3719 38.8048 54.1339 38.8285 53.885C38.8285 53.4511 38.816 52.8426 38.816 51.9333C38.7917 52.1816 38.7026 52.4189 38.558 52.6213C38.4133 52.8237 38.2182 52.984 37.9923 53.086Z" fill="url(#paint6_linear_220_14886)"/>
<path d="M70.6039 33.4324C70.5807 33.6813 70.4923 33.9194 70.3478 34.1226C70.2032 34.3257 70.0078 34.4865 69.7813 34.5885C69.1656 34.9033 68.4849 35.0673 67.7944 35.0673C67.104 35.0673 66.4232 34.9033 65.8075 34.5885L45.9648 23.0162C45.7431 22.9143 45.5304 22.7617 45.3869 22.5632C45.2434 22.3647 45.1496 22.1429 45.1213 21.8989C45.1213 22.2433 45.1305 23.4603 45.1305 23.83C45.1539 24.0788 45.2424 24.3168 45.3869 24.5199C45.5314 24.723 45.953 24.9861 45.953 24.9861L65.8189 36.546C66.4346 36.8607 67.1153 37.0248 67.8058 37.0248C68.4962 37.0248 69.177 36.8607 69.7927 36.546C70.019 36.4438 70.2144 36.2829 70.3589 36.0798C70.5034 35.8767 70.5919 35.6386 70.6153 35.3899C70.6176 34.9559 70.6039 33.4324 70.6039 33.4324Z" fill="url(#paint7_linear_220_14886)"/>
<path d="M59.1747 40.7391C58.559 41.0539 57.8907 41.2344 57.2002 41.2344C56.5098 41.2344 55.829 41.0704 55.2133 40.7556L45.9483 35.3351C45.7218 35.2331 45.5198 35.0969 45.3753 34.8938C45.2307 34.6906 45.1423 34.4525 45.1191 34.2036C45.1191 34.2036 45.1305 35.7248 45.1305 36.1553C45.1543 36.4042 45.243 36.6422 45.3877 36.8453C45.5324 37.0483 45.9542 37.3114 45.9542 37.3114C45.9542 37.3114 54.6101 42.3926 55.2258 42.7073C55.8416 43.0221 56.5223 43.1861 57.2127 43.1861C57.9032 43.1861 58.5839 43.0221 59.1997 42.7073C59.4258 42.6049 59.6211 42.444 59.7655 42.241C59.91 42.0379 59.9986 41.8 60.0222 41.5512C60.0222 41.1173 60.0097 39.5995 60.0097 39.5995C59.9863 39.8483 59.8978 40.0864 59.7533 40.2895C59.6088 40.4926 59.401 40.6369 59.1747 40.7391Z" fill="url(#paint8_linear_220_14886)"/>
<path d="M48.5888 46.9213C47.973 47.2361 47.2923 47.4001 46.6018 47.4001C45.9114 47.4001 45.2307 47.2361 44.6149 46.9213L30.0676 38.4256C29.8414 38.3232 29.6231 38.1819 29.4786 37.9788C29.3342 37.7757 29.2456 37.5378 29.2219 37.2891C29.2219 37.2891 29.2345 38.8102 29.2345 39.2408C29.2583 39.4893 29.347 39.727 29.4914 39.9299C29.6359 40.1327 29.831 40.2934 30.057 40.3957C30.057 40.3957 44.0117 48.5617 44.6274 48.8765C45.2432 49.1913 45.9239 49.3553 46.6144 49.3553C47.3048 49.3553 47.9855 49.1913 48.6013 48.8765C48.8275 48.7741 49.0227 48.6132 49.1672 48.4101C49.3116 48.2071 49.4002 47.9691 49.4239 47.7204C49.4239 47.2864 49.4113 45.7687 49.4113 45.7687C49.3871 46.0168 49.2983 46.254 49.1538 46.4564C49.0094 46.6588 48.8145 46.8192 48.5888 46.9213Z" fill="url(#paint9_linear_220_14886)"/>
</g>
<g filter="url(#filter3_bi_220_14886)">
<path d="M25.8861 14.932C25.66 14.8296 25.4647 14.6687 25.3203 14.4656C25.1758 14.2626 25.0872 14.0246 25.0636 13.7759C25.0874 13.5273 25.1761 13.2894 25.3205 13.0864C25.465 12.8834 25.6601 12.7224 25.8861 12.6198L32.5088 8.76689C33.1246 8.45212 33.8053 8.28809 34.4958 8.28809C35.1862 8.28809 35.8669 8.45212 36.4827 8.76689L43.1065 12.6198C43.3327 12.7222 43.5279 12.8831 43.6724 13.0862C43.8169 13.2892 43.9054 13.5272 43.9291 13.7759C43.9053 14.0247 43.8166 14.2628 43.6719 14.4659C43.5272 14.6689 43.3318 14.8298 43.1054 14.932C42.4898 15.2468 41.8093 15.4108 41.119 15.4108C40.4288 15.4108 39.7482 15.2468 39.1327 14.932L37.3041 13.8689V27.6457C37.2801 27.8945 37.1913 28.1324 37.0466 28.3354C36.902 28.5385 36.7066 28.6994 36.4804 28.8018C35.8697 29.1281 35.1869 29.2928 34.4958 29.2805H21.4087V42.2881C21.4197 42.5171 21.3547 42.7433 21.2241 42.9311C21.0663 43.1575 20.8604 43.3458 20.6215 43.4821C20.3337 43.6504 20.0227 43.7746 19.6986 43.8507C18.9767 44.0252 18.224 44.0252 17.5021 43.8507C17.178 43.7746 16.867 43.6504 16.5792 43.4821C16.3408 43.3455 16.1351 43.1578 15.9766 42.9322C15.847 42.7436 15.7821 42.5174 15.792 42.2881V27.648C15.8157 27.3994 15.9043 27.1617 16.0488 26.9588C16.1933 26.756 16.3885 26.5953 16.6146 26.493C17.2253 26.1657 17.9088 26.0009 18.6003 26.0143H31.6874V13.8689L29.8588 14.932C29.2431 15.2468 28.5624 15.4108 27.8719 15.4108C27.1815 15.4108 26.5019 15.2468 25.8861 14.932ZM27.3957 46.9217C28.0114 46.607 28.6922 46.4429 29.3826 46.4429C30.0731 46.4429 30.7538 46.607 31.3695 46.9217L37.9923 50.7747C38.2318 50.8567 38.4398 51.0122 38.5872 51.2195C38.7345 51.4267 38.8137 51.6752 38.8137 51.9302C38.8137 52.1851 38.7345 52.4337 38.5872 52.6409C38.4398 52.8482 38.2318 53.0037 37.9923 53.0857C37.3766 53.4008 36.6958 53.5651 36.0053 53.5651C35.3148 53.5651 34.634 53.4008 34.0184 53.0857L27.3885 49.2328C27.3885 49.2328 26.9469 48.9949 26.7991 48.7876C26.6513 48.5802 26.5718 48.3314 26.5718 48.0761C26.5718 47.8208 26.6513 47.572 26.7991 47.3647C26.9469 47.1574 27.1556 47.0032 27.3957 46.9217ZM34.0184 36.1299C33.4026 35.8151 32.7219 35.6511 32.0315 35.6511C31.341 35.6511 30.6603 35.8151 30.0445 36.1299C29.8046 36.2117 29.5961 36.3672 29.4485 36.5746C29.3008 36.7819 29.2214 37.0308 29.2214 37.286C29.2214 37.5413 29.3008 37.7901 29.4485 37.9975C29.5961 38.2049 30.0445 38.4421 30.0445 38.4421L44.615 46.9183C45.2307 47.2331 45.9114 47.3971 46.6019 47.3971C47.2923 47.3971 47.9731 47.2331 48.5888 46.9183C48.8284 46.8363 49.0364 46.6807 49.1837 46.4735C49.3311 46.2662 49.4103 46.0177 49.4103 45.7628C49.4103 45.5078 49.3311 45.2593 49.1837 45.052C49.0364 44.8448 48.8284 44.6892 48.5888 44.6072L34.0184 36.1299ZM45.94 33.0474C46.5473 32.7383 47.2364 32.5685 47.9269 32.5685C48.6173 32.5685 49.2981 32.7326 49.9138 33.0474L59.1854 38.4433C59.1854 38.4433 59.633 38.6808 59.7803 38.8881C59.9276 39.0953 60.0069 39.3439 60.0069 39.5988C60.0069 39.8537 59.9276 40.1023 59.7803 40.3095C59.633 40.5168 59.1854 40.7543 59.1854 40.7543C58.5696 41.0691 57.8889 41.2331 57.1984 41.2331C56.508 41.2331 55.8273 41.0691 55.2115 40.7543L45.94 35.3584C45.94 35.3584 45.4915 35.1211 45.3439 34.9138C45.1962 34.7064 45.1168 34.4576 45.1168 34.2023C45.1168 33.9471 45.1962 33.6982 45.3439 33.4909C45.4915 33.2835 45.7462 33.1476 45.94 33.0474ZM49.9138 20.7171C49.2981 20.4024 48.6173 20.2383 47.9269 20.2383C47.2364 20.2383 46.5557 20.4024 45.94 20.7171C45.7138 20.8195 45.5186 20.9804 45.3741 21.1835C45.2296 21.3865 45.1411 21.6245 45.1174 21.8732C45.1411 22.1219 45.2296 22.3599 45.3741 22.563C45.5186 22.766 45.94 23.0293 45.94 23.0293L65.8081 34.5904C66.4238 34.9051 67.1046 35.0692 67.795 35.0692C68.4855 35.0692 69.1662 34.9051 69.7819 34.5904C70.0168 34.4703 70.2295 34.3528 70.3769 34.1456C70.5242 33.9383 70.6034 33.6898 70.6034 33.4348C70.6034 33.1799 70.5242 32.9313 70.3769 32.7241C70.2295 32.5168 69.9963 32.3795 69.7819 32.2793L49.9138 20.7171Z" fill="url(#paint10_linear_220_14886)" fill-opacity="0.35"/>
<path d="M17.5021 43.8507C18.224 44.0252 18.9767 44.0252 19.6986 43.8507H17.5021ZM17.5021 43.8507C17.178 43.7746 16.867 43.6504 16.5792 43.4821C16.3408 43.3455 16.1351 43.1578 15.9766 42.9322L17.5021 43.8507ZM27.417 46.9845L27.4167 46.9838C27.1896 47.0609 26.9923 47.2067 26.8525 47.4027C26.7126 47.5989 26.6373 47.8344 26.6373 48.0761C26.6373 48.3178 26.7126 48.5533 26.8525 48.7495C26.9186 48.8422 27.0564 48.9478 27.1854 49.0333C27.2486 49.0751 27.3073 49.1107 27.3503 49.1358C27.3717 49.1483 27.3892 49.1582 27.4012 49.165L27.415 49.1726L27.4185 49.1745L27.4194 49.175L27.4196 49.1751L27.417 46.9845ZM27.417 46.9845L27.4255 46.9801C28.0321 46.6701 28.7026 46.5085 29.3826 46.5085C30.0621 46.5085 30.732 46.6698 31.3381 46.9793L27.417 46.9845ZM25.916 14.8736L25.916 14.8736L25.9132 14.8723C25.6976 14.7747 25.5115 14.6213 25.3737 14.4276C25.2371 14.2357 25.1529 14.011 25.1294 13.7759C25.1531 13.541 25.2374 13.3163 25.374 13.1244C25.5117 12.9308 25.6978 12.7773 25.9132 12.6795L25.9134 12.6798L25.9191 12.6765L32.5402 8.82446C33.1464 8.51493 33.8163 8.35364 34.4958 8.35364C35.1752 8.35364 35.8451 8.51493 36.4513 8.82445L43.0736 12.6765L43.0734 12.6768L43.0795 12.6795C43.2951 12.7771 43.4812 12.9305 43.619 13.1242C43.7556 13.3161 43.8398 13.5409 43.8632 13.7759C43.8397 14.011 43.7553 14.2358 43.6185 14.4278C43.4805 14.6215 43.2942 14.7748 43.0784 14.8723L43.0784 14.8722L43.0756 14.8736C42.4692 15.1837 41.7989 15.3452 41.119 15.3452C40.4398 15.3452 39.77 15.184 39.1641 14.8744L37.3371 13.8122L37.2386 13.755V13.8689V27.6425C37.2152 27.8787 37.1306 28.1046 36.9932 28.2974C36.8553 28.491 36.669 28.6444 36.4534 28.7421L36.4533 28.742L36.4495 28.744C35.8487 29.065 35.1768 29.2271 34.4969 29.215H34.4958H21.4087H21.3432V29.2805V42.2881H21.3431L21.3432 42.2913C21.3535 42.5059 21.2926 42.7178 21.1703 42.8936C21.018 43.1121 20.8194 43.2937 20.589 43.4252L20.5884 43.4255C20.3062 43.5905 20.0013 43.7122 19.6836 43.7868L19.6832 43.7869C18.9714 43.959 18.2293 43.959 17.5175 43.7869L17.5171 43.7868C17.1994 43.7122 16.8945 43.5905 16.6123 43.4255L16.6118 43.4252C16.3819 43.2935 16.1834 43.1124 16.0304 42.8948C15.909 42.718 15.8483 42.5059 15.8575 42.291L15.8575 42.291V42.2881V27.6512C15.8806 27.4151 15.965 27.1895 16.1022 26.9968C16.24 26.8034 16.4261 26.6502 16.6416 26.5528L16.6416 26.5529L16.6455 26.5508C17.2463 26.2288 17.9188 26.0667 18.5991 26.0798H18.6003H31.6874H31.753V26.0143V13.8689V13.755L31.6545 13.8122L29.8274 14.8744C29.2213 15.184 28.5514 15.3453 27.8719 15.3453C27.1919 15.3453 26.5225 15.1837 25.916 14.8736ZM30.0657 36.192L30.0659 36.1926L30.0744 36.1883C30.6809 35.8782 31.3514 35.7167 32.0315 35.7167C32.7109 35.7167 33.3809 35.878 33.987 36.1875L48.5558 44.6639L48.5552 44.665L48.5676 44.6693C48.7941 44.7468 48.9909 44.8939 49.1303 45.09C49.2697 45.2861 49.3447 45.5214 49.3447 45.7628C49.3447 46.0041 49.2697 46.2394 49.1303 46.4355C48.9909 46.6316 48.7941 46.7787 48.5676 46.8563L48.5674 46.8556L48.559 46.8599C47.9524 47.17 47.2819 47.3315 46.6019 47.3315C45.9224 47.3315 45.2525 47.1702 44.6463 46.8607L30.0775 38.3855L30.0775 38.3854L30.0752 38.3842L30.0752 38.3842L30.075 38.3841L30.0741 38.3836L30.0706 38.3817L30.0565 38.3741C30.0443 38.3673 30.0266 38.3575 30.0048 38.345C29.9613 38.3199 29.9017 38.2844 29.8377 38.2427C29.7069 38.1572 29.5677 38.0519 29.5019 37.9594C29.3621 37.7632 29.2869 37.5277 29.2869 37.286C29.2869 37.0444 29.3621 36.8088 29.5019 36.6126C29.6416 36.4163 29.8388 36.2693 30.0657 36.192ZM59.1524 38.4999L59.1524 38.5L59.1546 38.5012L59.1547 38.5012L59.1549 38.5013L59.1557 38.5017L59.1593 38.5037L59.1733 38.5113C59.1855 38.518 59.2032 38.5279 59.2249 38.5404C59.2684 38.5655 59.3278 38.601 59.3917 38.6428C59.5223 38.7283 59.6612 38.8336 59.7269 38.9261C59.8663 39.1222 59.9413 39.3574 59.9413 39.5988C59.9413 39.8402 59.8663 40.0754 59.7269 40.2715C59.6612 40.364 59.5223 40.4693 59.3917 40.5548C59.3278 40.5966 59.2684 40.6321 59.2249 40.6572C59.2032 40.6697 59.1855 40.6796 59.1733 40.6863L59.1593 40.6939L59.1557 40.6958L59.1555 40.6959C59.1554 40.696 59.1552 40.6961 59.155 40.6962C58.5486 41.0061 57.8783 41.1676 57.1984 41.1676C56.519 41.1676 55.8491 41.0063 55.2429 40.6968L45.9729 35.3017L45.973 35.3017L45.9706 35.3005L45.9706 35.3004L45.9704 35.3003L45.9695 35.2999L45.966 35.298L45.952 35.2903C45.9397 35.2836 45.922 35.2738 45.9002 35.2613C45.8567 35.2362 45.7971 35.2007 45.7331 35.159C45.6023 35.0735 45.4631 34.9682 45.3973 34.8757C45.2575 34.6795 45.1823 34.444 45.1823 34.2023C45.1823 33.9607 45.2575 33.7251 45.3973 33.5289C45.5342 33.3365 45.7739 33.2071 45.9699 33.1057C46.5682 32.8013 47.2471 32.6341 47.9269 32.6341C48.6064 32.6341 49.2763 32.7954 49.8824 33.1049L59.1524 38.4999ZM45.967 20.7768L45.967 20.7769L45.9698 20.7755C46.5763 20.4654 47.2468 20.3039 47.9269 20.3039C48.6063 20.3039 49.2763 20.4652 49.8824 20.7747L69.749 32.336L69.7488 32.3362L69.7542 32.3387C69.966 32.4378 70.1863 32.5692 70.3234 32.7621C70.4629 32.9582 70.5379 33.1935 70.5379 33.4348C70.5379 33.6762 70.4629 33.9114 70.3234 34.1076C70.1865 34.3002 69.9877 34.4116 69.7521 34.532C69.1456 34.842 68.4751 35.0036 67.795 35.0036C67.1156 35.0036 66.4456 34.8423 65.8395 34.5328L45.9747 22.9737L45.9747 22.9737L45.9745 22.9736L45.9737 22.9731L45.9703 22.9709L45.957 22.9625C45.9455 22.9551 45.9288 22.9442 45.9082 22.9305C45.8671 22.903 45.8108 22.8644 45.7502 22.8196C45.6265 22.7282 45.493 22.617 45.4275 22.5249C45.2909 22.333 45.2067 22.1082 45.1833 21.8732C45.2067 21.6382 45.2909 21.4134 45.4275 21.2215C45.5653 21.0278 45.7514 20.8744 45.967 20.7768Z" stroke="url(#paint11_linear_220_14886)" stroke-width="0.131111"/>
</g>
<defs>
<filter id="filter0_di_220_14886" x="0.581652" y="18.0863" width="85.3108" height="54.8118" filterUnits="userSpaceOnUse" color-interpolation-filters="sRGB">
<feFlood flood-opacity="0" result="BackgroundImageFix"/>
<feColorMatrix in="SourceAlpha" type="matrix" values="0 0 0 0 0 0 0 0 0 0 0 0 0 0 0 0 0 0 127 0" result="hardAlpha"/>
<feOffset dy="5.24444"/>
<feGaussianBlur stdDeviation="3.27778"/>
<feComposite in2="hardAlpha" operator="out"/>
<feColorMatrix type="matrix" values="0 0 0 0 0.0980392 0 0 0 0 0.211765 0 0 0 0 0.482353 0 0 0 0.5 0"/>
<feBlend mode="normal" in2="BackgroundImageFix" result="effect1_dropShadow_220_14886"/>
<feBlend mode="normal" in="SourceGraphic" in2="effect1_dropShadow_220_14886" result="shape"/>
<feColorMatrix in="SourceAlpha" type="matrix" values="0 0 0 0 0 0 0 0 0 0 0 0 0 0 0 0 0 0 127 0" result="hardAlpha"/>
<feOffset/>
<feGaussianBlur stdDeviation="2.62222"/>
<feComposite in2="hardAlpha" operator="arithmetic" k2="-1" k3="1"/>
<feColorMatrix type="matrix" values="0 0 0 0 1 0 0 0 0 1 0 0 0 0 1 0 0 0 0.25 0"/>
<feBlend mode="normal" in2="shape" result="effect2_innerShadow_220_14886"/>
</filter>
<filter id="filter1_f_220_14886" x="13.1825" y="16.5829" width="60.0552" height="43.243" filterUnits="userSpaceOnUse" color-interpolation-filters="sRGB">
<feFlood flood-opacity="0" result="BackgroundImageFix"/>
<feBlend mode="normal" in="SourceGraphic" in2="BackgroundImageFix" result="shape"/>
<feGaussianBlur stdDeviation="1.31111" result="effect1_foregroundBlur_220_14886"/>
</filter>
<filter id="filter2_b_220_14886" x="14.4936" y="12.4653" width="57.433" height="44.3659" filterUnits="userSpaceOnUse" color-interpolation-filters="sRGB">
<feFlood flood-opacity="0" result="BackgroundImageFix"/>
<feGaussianBlur in="BackgroundImageFix" stdDeviation="0.655556"/>
<feComposite in2="SourceAlpha" operator="in" result="effect1_backgroundBlur_220_14886"/>
<feBlend mode="normal" in="SourceGraphic" in2="effect1_backgroundBlur_220_14886" result="shape"/>
</filter>
<filter id="filter3_bi_220_14886" x="11.8577" y="4.35475" width="62.6792" height="53.1435" filterUnits="userSpaceOnUse" color-interpolation-filters="sRGB">
<feFlood flood-opacity="0" result="BackgroundImageFix"/>
<feGaussianBlur in="BackgroundImageFix" stdDeviation="1.96667"/>
<feComposite in2="SourceAlpha" operator="in" result="effect1_backgroundBlur_220_14886"/>
<feBlend mode="normal" in="SourceGraphic" in2="effect1_backgroundBlur_220_14886" result="shape"/>
<feColorMatrix in="SourceAlpha" type="matrix" values="0 0 0 0 0 0 0 0 0 0 0 0 0 0 0 0 0 0 127 0" result="hardAlpha"/>
<feOffset/>
<feGaussianBlur stdDeviation="0.983333"/>
<feComposite in2="hardAlpha" operator="arithmetic" k2="-1" k3="1"/>
<feColorMatrix type="matrix" values="0 0 0 0 1 0 0 0 0 1 0 0 0 0 1 0 0 0 0.5 0"/>
<feBlend mode="normal" in2="shape" result="effect2_innerShadow_220_14886"/>
</filter>
<linearGradient id="paint0_linear_220_14886" x1="75.8984" y1="27.3714" x2="9.21087" y2="48.8278" gradientUnits="userSpaceOnUse">
<stop stop-color="#00298D"/>
<stop offset="0.189268" stop-color="#2349A7"/>
<stop offset="0.646435" stop-color="#3155AD"/>
<stop offset="1" stop-color="#032C91"/>
</linearGradient>
<radialGradient id="paint1_radial_220_14886" cx="0" cy="0" r="1" gradientUnits="userSpaceOnUse" gradientTransform="translate(43.237 40.2478) rotate(90) scale(28.6214 49.5543)">
<stop offset="0.0520833" stop-color="#062E8D"/>
<stop offset="1" stop-color="#2968FE"/>
</radialGradient>
<linearGradient id="paint2_linear_220_14886" x1="31.722" y1="18.1989" x2="51.3229" y2="59.8861" gradientUnits="userSpaceOnUse">
<stop stop-color="white" stop-opacity="0"/>
<stop offset="1" stop-color="white" stop-opacity="0.43"/>
</linearGradient>
<linearGradient id="paint3_linear_220_14886" x1="31.6951" y1="19.0082" x2="26.7019" y2="11.6929" gradientUnits="userSpaceOnUse">
<stop stop-color="#E9F7FF"/>
<stop offset="0.579246" stop-color="#D7F0FF" stop-opacity="0.57"/>
<stop offset="0.956471" stop-color="#BDE7FF" stop-opacity="0"/>
</linearGradient>
<linearGradient id="paint4_linear_220_14886" x1="43.964" y1="39.2212" x2="17.9029" y2="12.5122" gradientUnits="userSpaceOnUse">
<stop stop-color="#E9F7FF"/>
<stop offset="0.579246" stop-color="#D7F0FF" stop-opacity="0.57"/>
<stop offset="0.956471" stop-color="#BDE7FF" stop-opacity="0"/>
</linearGradient>
<linearGradient id="paint5_linear_220_14886" x1="21.4292" y1="47.5971" x2="16.1004" y2="41.0696" gradientUnits="userSpaceOnUse">
<stop stop-color="#E9F7FF"/>
<stop offset="0.579246" stop-color="#D7F0FF" stop-opacity="0.57"/>
<stop offset="0.956471" stop-color="#BDE7FF" stop-opacity="0"/>
</linearGradient>
<linearGradient id="paint6_linear_220_14886" x1="38.8408" y1="58.9231" x2="28.1143" y2="44.8979" gradientUnits="userSpaceOnUse">
<stop stop-color="#E9F7FF"/>
<stop offset="0.579246" stop-color="#D7F0FF" stop-opacity="0.57"/>
<stop offset="0.956471" stop-color="#BDE7FF" stop-opacity="0"/>
</linearGradient>
<linearGradient id="paint7_linear_220_14886" x1="70.6411" y1="43.9419" x2="48.9758" y2="14.9519" gradientUnits="userSpaceOnUse">
<stop stop-color="#E9F7FF"/>
<stop offset="0.579246" stop-color="#D7F0FF" stop-opacity="0.57"/>
<stop offset="0.956471" stop-color="#BDE7FF" stop-opacity="0"/>
</linearGradient>
<linearGradient id="paint8_linear_220_14886" x1="60.0372" y1="47.2939" x2="47.1151" y2="30.2734" gradientUnits="userSpaceOnUse">
<stop stop-color="#E9F7FF"/>
<stop offset="0.579246" stop-color="#D7F0FF" stop-opacity="0.57"/>
<stop offset="0.956471" stop-color="#BDE7FF" stop-opacity="0"/>
</linearGradient>
<linearGradient id="paint9_linear_220_14886" x1="49.4441" y1="54.8733" x2="32.1288" y2="31.8582" gradientUnits="userSpaceOnUse">
<stop stop-color="#E9F7FF"/>
<stop offset="0.579246" stop-color="#D7F0FF" stop-opacity="0.57"/>
<stop offset="0.956471" stop-color="#BDE7FF" stop-opacity="0"/>
</linearGradient>
<linearGradient id="paint10_linear_220_14886" x1="15.791" y1="4.37807" x2="78.7776" y2="38.4572" gradientUnits="userSpaceOnUse">
<stop offset="0.0529546" stop-color="#3FA6E0"/>
<stop offset="0.461273" stop-color="#79CFFF"/>
<stop offset="1" stop-color="#79CFFF"/>
</linearGradient>
<linearGradient id="paint11_linear_220_14886" x1="69.1693" y1="60.1785" x2="10.3593" y2="31.5496" gradientUnits="userSpaceOnUse">
<stop stop-color="#E9F7FF"/>
<stop offset="0.923987" stop-color="#BDE7FF" stop-opacity="0"/>
</linearGradient>
</defs>
</svg>
