<svg width="86" height="71" viewBox="0 0 86 71" fill="none" xmlns="http://www.w3.org/2000/svg">
<path d="M79.3346 37.4255C79.3346 42.7583 75.7976 48.0881 68.7618 52.1573C54.6638 60.2987 31.8072 60.3002 17.7092 52.1573C10.1857 47.8109 6.71792 42.024 7.22636 36.333C7.18184 36.538 7.14839 36.7452 7.12615 36.9537C6.44822 44.383 8.73402 49.4858 17.7092 54.6637C31.8072 62.8066 54.6638 62.8051 68.7618 54.6637C76.8336 50.0003 79.4997 44.0867 79.3346 37.4255Z" fill="url(#paint0_linear_220_14889)"/>
<g filter="url(#filter0_di_220_14889)">
<path d="M43.237 58.2642C63.1744 58.2642 79.3368 48.9292 79.3368 37.4138C79.3368 25.8985 63.1744 16.5635 43.237 16.5635C23.2996 16.5635 7.13721 25.8985 7.13721 37.4138C7.13721 48.9292 23.2996 58.2642 43.237 58.2642Z" fill="url(#paint1_radial_220_14889)"/>
<path d="M79.2713 37.4138C79.2713 43.1382 75.2535 48.3331 68.7306 52.1005C62.2095 55.867 53.1963 58.1986 43.237 58.1986C33.2777 58.1986 24.2645 55.867 17.7434 52.1005C11.2205 48.3331 7.20276 43.1382 7.20276 37.4138C7.20276 31.6895 11.2205 26.4946 17.7434 22.7272C24.2645 18.9607 33.2777 16.629 43.237 16.629C53.1963 16.629 62.2095 18.9607 68.7306 22.7272C75.2535 26.4946 79.2713 31.6895 79.2713 37.4138Z" stroke="url(#paint2_linear_220_14889)" stroke-width="0.131111" stroke-linejoin="round"/>
</g>
<g style="mix-blend-mode:multiply" filter="url(#filter1_f_220_14889)">
<path d="M60.7317 33.2753C60.74 33.3677 60.7361 33.4608 60.7202 33.5521C59.7725 37.4009 56.4132 40.8856 51.3183 43.3222C45.6306 45.866 39.4461 47.0134 33.2536 46.6736C27.2557 46.5488 21.3833 44.8817 16.1711 41.8241C11.7491 39.0115 9.26851 35.3107 9.21387 31.4619V33.8748C9.22969 37.7607 11.7189 41.497 16.1783 44.3377C21.3889 47.392 27.2587 49.0565 33.2536 49.1798C39.4487 49.5196 45.6357 48.3712 51.3254 45.8254C56.4204 43.3918 59.7797 39.9042 60.7274 36.0553C60.8136 35.6956 60.7504 33.2812 60.7504 33.2812C60.7504 33.2812 60.7374 33.2827 60.7317 33.2753Z" fill="#083090" fill-opacity="0.4"/>
<path d="M67.9443 23.5675V23.7999C67.9069 24.8954 66.3207 25.6992 64.4786 25.6992H42.0552C41.1447 25.7175 40.2448 25.4958 39.4409 25.0553C39.1525 24.9193 38.9024 24.7101 38.7143 24.4472C38.5261 24.1844 38.406 23.8765 38.3652 23.5527V26.0145C38.3967 26.349 38.5136 26.669 38.704 26.942C38.8945 27.2149 39.1517 27.4312 39.4495 27.5688C40.2536 28.0087 41.1534 28.2304 42.0639 28.2128H64.4844C66.3265 28.2128 67.9127 27.409 67.95 26.3135L67.9443 23.5675Z" fill="#083090" fill-opacity="0.4"/>
</g>
<g filter="url(#filter2_b_220_14889)">
<path d="M60.6821 30.9447C60.6904 31.0371 60.6866 31.1302 60.6705 31.2216C59.7159 35.0704 56.3323 38.555 51.2003 40.9916C45.4713 43.5354 39.242 44.6828 33.0045 44.3431C26.9631 44.2182 21.0481 42.5511 15.798 39.4936C11.344 36.681 8.84533 32.9802 8.79028 29.1313V31.5443C8.80622 35.4301 11.3135 39.1664 15.8053 42.0071C21.0537 45.0614 26.9661 46.7259 33.0045 46.8493C39.2446 47.189 45.4765 46.0406 51.2076 43.4949C56.3395 41.0612 59.7232 37.5736 60.6777 33.7248C60.7646 33.3651 60.7009 30.9507 60.7009 30.9507C60.7009 30.9507 60.6879 30.9521 60.6821 30.9447Z" fill="url(#paint3_linear_220_14889)"/>
<path d="M67.9464 21.237V21.4694C67.9087 22.5648 66.311 23.3686 64.4555 23.3686H41.8694C40.9522 23.3869 40.0458 23.1653 39.236 22.7247C38.9456 22.5887 38.6937 22.3795 38.5041 22.1167C38.3146 21.8538 38.1936 21.546 38.1526 21.2222V23.6839C38.1843 24.0184 38.3021 24.3384 38.4939 24.6114C38.6857 24.8844 38.9447 25.1007 39.2447 25.2383C40.0547 25.6782 40.961 25.8998 41.8781 25.8822H64.4613C66.3168 25.8822 67.9145 25.0784 67.9522 23.983L67.9464 21.237Z" fill="url(#paint4_linear_220_14889)"/>
</g>
<g filter="url(#filter3_bi_220_14889)">
<path d="M31.1378 13.7963C33.1758 13.6261 34.8531 14.6283 34.8531 15.8407V27.3634C34.8528 27.8049 35.0239 28.2284 35.3289 28.5409C35.6339 28.8535 36.0479 29.0295 36.4798 29.0303H57.2046C59.2615 29.0303 60.9591 30.0191 60.6694 31.2211C59.7149 35.07 56.3312 38.5546 51.1992 40.9912C45.4703 43.535 39.2409 44.6824 33.0034 44.3427C26.9616 44.2175 21.0462 42.5505 15.7955 39.4931C11.3052 36.6524 8.7979 32.9146 8.78052 29.0303C8.78052 25.3295 11.0416 21.7516 15.1538 18.9538C19.9889 15.9162 25.4826 14.1447 31.1479 13.7963H31.1378ZM64.4528 23.3682C66.3083 23.3682 67.906 22.5644 67.9437 21.469V21.1729C67.9085 19.0168 67.1978 16.929 65.9158 15.2161C64.3587 13.1384 62.3872 11.4228 60.132 10.1831C57.4249 8.66057 54.5175 7.54431 51.4991 6.86864C48.1726 6.1023 44.7694 5.73811 41.3597 5.78357C39.5042 5.80577 38.1412 6.7517 38.1412 7.84417V21.167C38.1726 21.5016 38.2903 21.8217 38.4821 22.0948C38.674 22.3678 38.9332 22.584 39.2334 22.7213C40.0431 23.1619 40.9495 23.3836 41.8667 23.3653L64.4528 23.3682Z" fill="url(#paint5_linear_220_14889)" fill-opacity="0.35"/>
<path d="M34.7876 27.3634C34.7872 27.8217 34.9649 28.2618 35.282 28.5867C35.5991 28.9117 36.0299 29.095 36.4797 29.0958H36.4798H57.2046C58.2238 29.0958 59.1498 29.341 59.7826 29.7308C60.4167 30.1214 60.7408 30.6447 60.6057 31.2056C59.6577 35.0278 56.2936 38.4997 51.1718 40.9317C45.4525 43.471 39.2338 44.6164 33.007 44.2772L33.0048 44.2771C26.9745 44.1522 21.0704 42.4885 15.8296 39.4371C11.3512 36.6036 8.86338 32.8839 8.84607 29.0301C8.84613 25.3584 11.0893 21.7987 15.1897 19.0086C20.0153 15.9772 25.498 14.2094 31.152 13.8618L31.1519 13.8609C32.1561 13.7787 33.0681 13.9846 33.7275 14.3571C34.3903 14.7315 34.7876 15.2671 34.7876 15.8407V27.3634ZM34.7876 27.3634L34.8531 27.3634H34.7876V27.3634ZM60.0999 10.2402L60.1004 10.2405C62.3474 11.4757 64.3118 13.1852 65.8633 15.2555C67.1369 16.957 67.8431 19.0312 67.8781 21.1735V21.4678C67.8599 21.981 67.4756 22.4387 66.8492 22.7715C66.2243 23.1034 65.372 23.3027 64.4528 23.3027L41.8667 23.2997L41.8654 23.2997C40.9597 23.3178 40.0644 23.0989 39.2647 22.6638L39.2648 22.6636L39.2606 22.6617C38.9711 22.5293 38.721 22.3207 38.5357 22.0571C38.3511 21.7943 38.2376 21.4862 38.2068 21.1639V7.84417C38.2068 7.32725 38.5294 6.83561 39.0906 6.46733C39.6511 6.09949 40.4431 5.8601 41.3605 5.84912L41.3606 5.84912C44.7651 5.80373 48.1629 6.16736 51.4844 6.93252L51.4848 6.93261C54.4969 7.60688 57.3983 8.72083 60.0999 10.2402Z" stroke="url(#paint6_linear_220_14889)" stroke-width="0.131111"/>
</g>
<defs>
<filter id="filter0_di_220_14889" x="0.581652" y="15.2524" width="85.3108" height="54.8118" filterUnits="userSpaceOnUse" color-interpolation-filters="sRGB">
<feFlood flood-opacity="0" result="BackgroundImageFix"/>
<feColorMatrix in="SourceAlpha" type="matrix" values="0 0 0 0 0 0 0 0 0 0 0 0 0 0 0 0 0 0 127 0" result="hardAlpha"/>
<feOffset dy="5.24444"/>
<feGaussianBlur stdDeviation="3.27778"/>
<feComposite in2="hardAlpha" operator="out"/>
<feColorMatrix type="matrix" values="0 0 0 0 0.0980392 0 0 0 0 0.211765 0 0 0 0 0.482353 0 0 0 0.5 0"/>
<feBlend mode="normal" in2="BackgroundImageFix" result="effect1_dropShadow_220_14889"/>
<feBlend mode="normal" in="SourceGraphic" in2="effect1_dropShadow_220_14889" result="shape"/>
<feColorMatrix in="SourceAlpha" type="matrix" values="0 0 0 0 0 0 0 0 0 0 0 0 0 0 0 0 0 0 127 0" result="hardAlpha"/>
<feOffset/>
<feGaussianBlur stdDeviation="2.62222"/>
<feComposite in2="hardAlpha" operator="arithmetic" k2="-1" k3="1"/>
<feColorMatrix type="matrix" values="0 0 0 0 1 0 0 0 0 1 0 0 0 0 1 0 0 0 0.25 0"/>
<feBlend mode="normal" in2="shape" result="effect2_innerShadow_220_14889"/>
</filter>
<filter id="filter1_f_220_14889" x="6.59165" y="20.9305" width="63.9805" height="30.93" filterUnits="userSpaceOnUse" color-interpolation-filters="sRGB">
<feFlood flood-opacity="0" result="BackgroundImageFix"/>
<feBlend mode="normal" in="SourceGraphic" in2="BackgroundImageFix" result="shape"/>
<feGaussianBlur stdDeviation="1.31111" result="effect1_foregroundBlur_220_14889"/>
</filter>
<filter id="filter2_b_220_14889" x="7.47917" y="19.9111" width="61.7841" height="28.3078" filterUnits="userSpaceOnUse" color-interpolation-filters="sRGB">
<feFlood flood-opacity="0" result="BackgroundImageFix"/>
<feGaussianBlur in="BackgroundImageFix" stdDeviation="0.655556"/>
<feComposite in2="SourceAlpha" operator="in" result="effect1_backgroundBlur_220_14889"/>
<feBlend mode="normal" in="SourceGraphic" in2="effect1_backgroundBlur_220_14889" result="shape"/>
</filter>
<filter id="filter3_bi_220_14889" x="4.84718" y="1.84645" width="67.0298" height="46.4878" filterUnits="userSpaceOnUse" color-interpolation-filters="sRGB">
<feFlood flood-opacity="0" result="BackgroundImageFix"/>
<feGaussianBlur in="BackgroundImageFix" stdDeviation="1.96667"/>
<feComposite in2="SourceAlpha" operator="in" result="effect1_backgroundBlur_220_14889"/>
<feBlend mode="normal" in="SourceGraphic" in2="effect1_backgroundBlur_220_14889" result="shape"/>
<feColorMatrix in="SourceAlpha" type="matrix" values="0 0 0 0 0 0 0 0 0 0 0 0 0 0 0 0 0 0 127 0" result="hardAlpha"/>
<feOffset/>
<feGaussianBlur stdDeviation="0.983333"/>
<feComposite in2="hardAlpha" operator="arithmetic" k2="-1" k3="1"/>
<feColorMatrix type="matrix" values="0 0 0 0 1 0 0 0 0 1 0 0 0 0 1 0 0 0 0.5 0"/>
<feBlend mode="normal" in2="shape" result="effect2_innerShadow_220_14889"/>
</filter>
<linearGradient id="paint0_linear_220_14889" x1="75.8984" y1="24.5374" x2="9.21087" y2="45.9938" gradientUnits="userSpaceOnUse">
<stop stop-color="#00298D"/>
<stop offset="0.189268" stop-color="#2349A7"/>
<stop offset="0.646435" stop-color="#3155AD"/>
<stop offset="1" stop-color="#032C91"/>
</linearGradient>
<radialGradient id="paint1_radial_220_14889" cx="0" cy="0" r="1" gradientUnits="userSpaceOnUse" gradientTransform="translate(43.237 37.4138) rotate(90) scale(28.6214 49.5543)">
<stop offset="0.0520833" stop-color="#062E8D"/>
<stop offset="1" stop-color="#2968FE"/>
</radialGradient>
<linearGradient id="paint2_linear_220_14889" x1="31.722" y1="15.3649" x2="51.3229" y2="57.0522" gradientUnits="userSpaceOnUse">
<stop stop-color="white" stop-opacity="0"/>
<stop offset="1" stop-color="white" stop-opacity="0.43"/>
</linearGradient>
<linearGradient id="paint3_linear_220_14889" x1="60.7755" y1="55.0368" x2="41.4707" y2="10.2621" gradientUnits="userSpaceOnUse">
<stop stop-color="#E9F7FF"/>
<stop offset="0.579246" stop-color="#D7F0FF" stop-opacity="0.57"/>
<stop offset="0.956471" stop-color="#BDE7FF" stop-opacity="0"/>
</linearGradient>
<linearGradient id="paint4_linear_220_14889" x1="67.982" y1="28.0147" x2="65.3415" y2="14.6124" gradientUnits="userSpaceOnUse">
<stop stop-color="#E9F7FF"/>
<stop offset="0.579246" stop-color="#D7F0FF" stop-opacity="0.57"/>
<stop offset="0.956471" stop-color="#BDE7FF" stop-opacity="0"/>
</linearGradient>
<linearGradient id="paint5_linear_220_14889" x1="8.78052" y1="2.44454" x2="68.62" y2="43.4132" gradientUnits="userSpaceOnUse">
<stop offset="0.0529546" stop-color="#0D7BE0"/>
<stop offset="0.461273" stop-color="#79CFFF"/>
<stop offset="1" stop-color="#79CFFF"/>
</linearGradient>
<linearGradient id="paint6_linear_220_14889" x1="66.3957" y1="50.0423" x2="9.47378" y2="14.9786" gradientUnits="userSpaceOnUse">
<stop stop-color="#E9F7FF"/>
<stop offset="0.923987" stop-color="#BDE7FF" stop-opacity="0"/>
</linearGradient>
</defs>
</svg>
