<svg width="86" height="70" viewBox="0 0 86 70" fill="none" xmlns="http://www.w3.org/2000/svg">
<path d="M79.1417 36.2136C79.1417 41.5463 75.6047 46.8761 68.569 50.9454C54.471 59.0868 31.6144 59.0882 17.5164 50.9454C9.99281 46.599 6.52504 40.8121 7.03349 35.1211C6.98897 35.326 6.95551 35.5332 6.93328 35.7418C6.25535 43.1711 8.54115 48.2738 17.5164 53.4518C31.6144 61.5947 54.471 61.5932 68.569 53.4518C76.6408 48.7884 79.3068 42.8747 79.1417 36.2136Z" fill="url(#paint0_linear_220_14890)"/>
<g filter="url(#filter0_di_220_14890)">
<path d="M43.0441 57.0523C62.9815 57.0523 79.1439 47.7173 79.1439 36.2019C79.1439 24.6866 62.9815 15.3516 43.0441 15.3516C23.1068 15.3516 6.94434 24.6866 6.94434 36.2019C6.94434 47.7173 23.1068 57.0523 43.0441 57.0523Z" fill="url(#paint1_radial_220_14890)"/>
<path d="M79.0784 36.2019C79.0784 41.9263 75.0606 47.1211 68.5378 50.8886C62.0166 54.655 53.0034 56.9867 43.0441 56.9867C33.0849 56.9867 24.0716 54.655 17.5505 50.8886C11.0276 47.1211 7.00989 41.9263 7.00989 36.2019C7.00989 30.4776 11.0276 25.2827 17.5505 21.5153C24.0716 17.7488 33.0849 15.4171 43.0441 15.4171C53.0034 15.4171 62.0166 17.7488 68.5378 21.5153C75.0606 25.2827 79.0784 30.4776 79.0784 36.2019Z" stroke="url(#paint2_linear_220_14890)" stroke-width="0.131111" stroke-linejoin="round"/>
</g>
<g style="mix-blend-mode:multiply" filter="url(#filter1_f_220_14890)">
<path d="M21.7928 23.8547C21.0515 23.5876 20.223 23.4501 19.3828 23.4545C18.5348 23.4386 17.6939 23.5629 16.9335 23.8167C16.6178 23.9238 16.3387 24.0743 16.114 24.2584C15.9307 24.4085 15.8229 24.5942 15.8064 24.7884C15.8012 24.9816 15.8899 25.1705 16.059 25.3264C16.1543 25.4167 16.2655 25.4989 16.3902 25.5711C16.556 25.4716 16.7383 25.3853 16.9335 25.314C17.6939 25.0603 18.5348 24.936 19.3828 24.9518C20.223 24.9474 21.0515 25.085 21.7928 25.352C21.9505 25.4132 22.0991 25.4845 22.2366 25.5649C22.4138 25.4733 22.5582 25.3559 22.6591 25.2215C22.7599 25.0871 22.8146 24.9391 22.8191 24.7884C22.7794 24.5868 22.6643 24.3954 22.4848 24.232C22.3053 24.0687 22.0671 23.9388 21.7928 23.8547V23.8547Z" fill="#083090" fill-opacity="0.4"/>
<path d="M31.5924 18.1925C30.8511 17.9255 30.0226 17.788 29.1823 17.7924C28.3344 17.7765 27.4935 17.9008 26.7331 18.1546C26.4173 18.2617 26.1382 18.4122 25.9136 18.5963C25.7302 18.7464 25.6225 18.9321 25.6059 19.1263C25.6007 19.3195 25.6895 19.5084 25.8586 19.6643C25.9539 19.7546 26.0651 19.8368 26.1898 19.909C26.3556 19.8095 26.5379 19.7232 26.7331 19.6519C27.4935 19.3982 28.3344 19.2739 29.1823 19.2897C30.0226 19.2853 30.8511 19.4229 31.5924 19.6899C31.75 19.7511 31.8987 19.8224 32.0361 19.9028C32.2134 19.8112 32.3578 19.6938 32.4587 19.5594C32.5595 19.425 32.6142 19.2769 32.6187 19.1263C32.5789 18.9247 32.4639 18.7333 32.2843 18.5699C32.1048 18.4066 31.8667 18.2767 31.5924 18.1925V18.1925Z" fill="#083090" fill-opacity="0.4"/>
<path d="M11.3984 19.3059L13.4284 18.1096L11.7955 17.1468C11.6248 17.065 11.4752 16.9438 11.3585 16.7927C11.2419 16.6416 11.1614 16.4648 11.1236 16.2764C11.1236 16.2764 11.0862 18.4428 11.1236 18.7716C11.1594 18.9742 11.2553 19.1607 11.3984 19.3059V19.3059Z" fill="#083090" fill-opacity="0.4"/>
<path d="M43.9627 25.7642C44.5213 25.5082 45.0036 25.106 45.3606 24.5984C45.7177 24.0909 45.9367 23.496 45.9956 22.8741V20.3789C45.9367 21.0007 45.7177 21.5956 45.3606 22.1032C45.0036 22.6108 44.5213 23.013 43.9627 23.269L25.4286 34.1776C23.9197 34.996 22.2311 35.4083 20.5225 35.3753C18.8139 35.4081 17.1253 34.9959 15.6163 34.1776L9.08031 30.3703C9.08035 30.7574 8.20044 32.3594 8.20044 32.3594L15.6163 36.6728C17.1253 37.4911 18.8139 37.9034 20.5225 37.8705C22.2311 37.9035 23.9197 37.4913 25.4286 36.6728L43.9627 25.7642Z" fill="#083090" fill-opacity="0.4"/>
<path d="M65.6695 29.0166C65.683 29.2616 65.6738 29.5073 65.6422 29.7505C65.1602 33.4875 61.7043 37.2083 55.4025 40.9189C49.6596 44.466 43.1558 46.5316 36.4541 46.9368C34.8133 47.0122 33.1697 46.8761 31.5623 46.5317C30.1051 46.2315 28.7023 45.7022 27.4043 44.9626L25.4246 43.7972C24.8663 43.5412 24.3843 43.1389 24.0278 42.6313C23.6712 42.1237 23.4527 41.5288 23.3945 40.9071C23.3945 40.9071 23.3945 42.3191 23.3945 43.4024C23.4527 44.024 23.6712 44.6189 24.0278 45.1265C24.3843 45.6341 24.8663 46.0364 25.4246 46.2924L27.4043 47.4578C28.7023 48.1974 30.1051 48.7267 31.5623 49.0269C33.1697 49.3714 34.8133 49.5075 36.4541 49.432C43.1558 49.0268 49.6596 46.9612 55.4025 43.4141C61.7043 39.7035 65.1602 35.9827 65.6422 32.2457C65.7139 31.1709 65.723 30.0926 65.6695 29.0166V29.0166Z" fill="#083090" fill-opacity="0.4"/>
</g>
<g filter="url(#filter2_b_220_14890)">
<path d="M22.036 21.9064C21.2213 21.4628 20.3107 21.2342 19.3872 21.2415C18.4552 21.2151 17.5311 21.4217 16.6953 21.8433C16.3483 22.0214 16.0416 22.2713 15.7946 22.5772C15.5931 22.8267 15.4747 23.1351 15.4565 23.4579C15.4508 23.7788 15.5483 24.0928 15.7342 24.3517C15.839 24.5018 15.9612 24.6383 16.0982 24.7583C16.2805 24.5929 16.4808 24.4496 16.6953 24.3312C17.5311 23.9096 18.4552 23.703 19.3872 23.7294C20.3107 23.7221 21.2213 23.9506 22.036 24.3943C22.2093 24.496 22.3726 24.6145 22.5237 24.748C22.7185 24.5958 22.8772 24.4008 22.9881 24.1774C23.0989 23.9541 23.159 23.7081 23.164 23.4579C23.1202 23.1229 22.9938 22.8048 22.7965 22.5334C22.5992 22.262 22.3375 22.0463 22.036 21.9064V21.9064Z" fill="url(#paint3_linear_220_14890)"/>
<path d="M31.833 16.135C31.0179 15.6926 30.1076 15.4645 29.1843 15.4716C28.2529 15.4447 27.3292 15.6508 26.4938 16.0719C26.1465 16.25 25.8393 16.5 25.5917 16.8058C25.3902 17.0553 25.2718 17.3637 25.2536 17.6864C25.2485 18.0073 25.346 18.3211 25.5313 18.5803C25.636 18.7304 25.7583 18.8669 25.8953 18.9869C26.0773 18.8202 26.2783 18.6763 26.4938 18.5583C27.3293 18.1374 28.2528 17.9309 29.1843 17.9565C30.1077 17.9499 31.0181 18.1785 31.833 18.6214C32.0064 18.7236 32.1697 18.8426 32.3208 18.9766C32.5156 18.8244 32.6743 18.6294 32.7851 18.406C32.896 18.1827 32.9561 17.9367 32.961 17.6864C32.9169 17.3516 32.7903 17.0337 32.5931 16.7624C32.3958 16.4911 32.1343 16.2752 31.833 16.135V16.135Z" fill="url(#paint4_linear_220_14890)"/>
<path d="M11.3964 17.2507L13.4265 16.0545L11.7935 15.0916C11.6228 15.0099 11.4732 14.8886 11.3566 14.7375C11.24 14.5864 11.1595 14.4096 11.1216 14.2212C11.1216 14.2212 11.0842 16.3876 11.1216 16.7164C11.1574 16.919 11.2534 17.1055 11.3964 17.2507V17.2507Z" fill="url(#paint5_linear_220_14890)"/>
<path d="M43.9601 23.709C44.5187 23.453 45.001 23.0508 45.358 22.5433C45.715 22.0357 45.9341 21.4408 45.993 20.819V18.3237C45.9341 18.9456 45.715 19.5405 45.358 20.048C45.001 20.5556 44.5187 20.9578 43.9601 21.2138L25.426 32.1224C23.9171 32.9409 22.2285 33.3531 20.5199 33.3201C18.8112 33.353 17.1226 32.9407 15.6137 32.1224L5.79419 26.3378C5.2066 26.0111 4.69366 25.5608 4.28925 25.0168C3.95561 24.5653 3.77076 24.0175 3.76123 23.4522V25.9474C3.77076 26.5128 3.95561 27.0605 4.28925 27.5121C4.69366 28.056 5.2066 28.5063 5.79419 28.8331L15.6137 34.6176C17.1226 35.436 18.8112 35.8482 20.5199 35.8153C22.2285 35.8483 23.9171 35.4361 25.426 34.6176L43.9601 23.709Z" fill="url(#paint6_linear_220_14890)"/>
<path d="M65.6649 26.9614C65.6783 27.2064 65.6692 27.4521 65.6375 27.6953C65.1555 31.4323 61.6996 35.1531 55.3979 38.8637C49.655 42.4108 43.1511 44.4764 36.4495 44.8816C34.8087 44.9571 33.1651 44.821 31.5577 44.4765C30.1004 44.1763 28.6977 43.647 27.3997 42.9074L25.42 41.742C24.8616 41.486 24.3797 41.0837 24.0231 40.5761C23.6666 40.0685 23.4481 39.4736 23.3899 38.8519C23.3899 38.8519 23.3899 40.264 23.3899 41.3472C23.4481 41.9688 23.6666 42.5637 24.0231 43.0713C24.3797 43.5789 24.8616 43.9812 25.42 44.2372L27.3997 45.4027C28.6977 46.1422 30.1004 46.6716 31.5577 46.9717C33.1651 47.3162 34.8087 47.4523 36.4495 47.3768C43.1511 46.9716 49.655 44.906 55.3979 41.3589C61.6996 37.6484 65.1555 33.9275 65.6375 30.1906C65.7092 29.1157 65.7184 28.0374 65.6649 26.9614V26.9614Z" fill="url(#paint7_linear_220_14890)"/>
</g>
<g filter="url(#filter3_bi_220_14890)">
<path d="M50.5027 21.1954C51.2076 20.7935 51.9654 20.4969 52.753 20.3147C54.4997 19.8999 56.3166 19.8999 58.0634 20.3147C58.8514 20.4969 59.6096 20.7935 60.3151 21.1954L62.2862 22.3564C63.3511 22.9464 64.2634 23.786 64.9479 24.8062C65.51 25.6512 65.7542 26.6748 65.6356 27.6889C65.1536 31.4259 61.6977 35.1467 55.3959 38.8573C49.653 42.4044 43.1492 44.4699 36.4475 44.8752C34.8067 44.9506 33.1632 44.8145 31.5558 44.4701C30.0985 44.1699 28.6957 43.6406 27.3978 42.901L25.418 41.7356C24.8597 41.4795 24.3778 41.0773 24.0212 40.5697C23.6646 40.0621 23.4461 39.4672 23.3879 38.8455C23.4472 38.224 23.6665 37.6295 24.0235 37.1222C24.3805 36.6149 24.8626 36.2129 25.4209 35.9569L50.5042 21.1939L50.5027 21.1954ZM11.5887 13.309L11.793 13.1725C12.2478 12.9229 12.7543 12.7871 13.2706 12.7762C13.8026 12.7491 14.3338 12.8428 14.8259 13.0507L15.0633 13.1725L16.6949 14.1354L24.3203 9.63955C25.8293 8.8217 27.5179 8.40998 29.2264 8.4433C30.9349 8.40978 32.6236 8.82152 34.1326 9.63955L43.9564 15.4256C44.5148 15.6816 44.9969 16.0839 45.3537 16.5915C45.7105 17.099 45.9293 17.6939 45.9879 18.3156C45.9308 18.9381 45.7131 19.5341 45.3571 20.043C45.001 20.5519 44.5192 20.9556 43.9607 21.213L25.4267 32.1216C23.9178 32.9401 22.2291 33.3523 20.5205 33.3193C18.8119 33.3522 17.1233 32.94 15.6143 32.1216L5.79484 26.3371C5.20725 26.0103 4.69431 25.56 4.2899 25.0161C3.94734 24.5694 3.76123 24.0185 3.76123 23.4514C3.76123 22.8842 3.94734 22.3334 4.2899 21.8867C4.69504 21.3435 5.20782 20.8934 5.79484 20.5657L13.4202 16.0699L11.7873 15.107C11.6165 15.0255 11.4667 14.9043 11.3501 14.7532C11.2334 14.602 11.153 14.4251 11.1154 14.2366C11.1069 14.0552 11.1457 13.8747 11.2278 13.7136C11.3099 13.5524 11.4325 13.4164 11.583 13.3193L11.7873 13.1813L11.5801 13.3207L11.5887 13.309ZM16.6963 21.8427C16.3493 22.0208 16.0426 22.2707 15.7956 22.5766C15.5941 22.8261 15.4757 23.1345 15.4575 23.4573C15.4518 23.7782 15.5493 24.0922 15.7352 24.3511C15.9614 24.6636 16.2515 24.9221 16.5855 25.1085C16.9881 25.3382 17.4215 25.5068 17.8718 25.609C18.369 25.7252 18.8781 25.7804 19.3882 25.7734C19.8954 25.7686 20.4002 25.7016 20.8917 25.5738C21.333 25.4628 21.7552 25.2836 22.1434 25.0425C22.4362 24.8945 22.6852 24.6696 22.8647 24.3911C23.0442 24.1125 23.1478 23.7902 23.1649 23.4573C23.1224 23.121 22.9965 22.8014 22.7991 22.5286C22.6017 22.2559 22.3394 22.039 22.037 21.8985C21.2223 21.4548 20.3117 21.2262 19.3882 21.2336C18.4556 21.2095 17.5314 21.4186 16.6963 21.8427ZM26.4942 16.0714C26.1466 16.2491 25.8393 16.4991 25.5921 16.8053C25.3906 17.0547 25.2722 17.3632 25.254 17.6859C25.2489 18.0068 25.3464 18.3206 25.5317 18.5798C25.7583 18.8919 26.0483 19.1503 26.382 19.3372C26.7846 19.5669 27.2179 19.7355 27.6682 19.8377C28.6642 20.0669 29.699 20.0549 30.6896 19.8025C31.1302 19.6905 31.5517 19.5114 31.9399 19.2711C32.2328 19.1233 32.4819 18.8985 32.6614 18.6199C32.8409 18.3413 32.9445 18.0189 32.9614 17.6859C32.9187 17.3496 32.7927 17.0298 32.5954 16.7569C32.3981 16.4839 32.1358 16.2667 31.8334 16.1257C31.0184 15.6832 30.108 15.4552 29.1847 15.4622C28.2522 15.4395 27.3285 15.6502 26.4942 16.0758V16.0714Z" fill="url(#paint8_linear_220_14890)" fill-opacity="0.35"/>
<path d="M16.6664 21.7844L16.6666 21.7843C17.5111 21.3554 18.4457 21.1438 19.3888 21.168C20.3224 21.1608 21.2428 21.3918 22.0665 21.8399C22.3784 21.9852 22.6487 22.209 22.8522 22.4902C23.0561 22.7719 23.1861 23.102 23.23 23.449L23.2314 23.4607L23.2304 23.4606C23.2127 23.8049 23.1056 24.1383 22.9198 24.4266C22.7346 24.714 22.4778 24.9463 22.1756 25.0997C21.7823 25.3436 21.3549 25.5249 20.9079 25.6373C20.4113 25.7664 19.9013 25.8341 19.3888 25.839M16.6664 21.7844L19.3882 25.7734M16.6664 21.7844C16.3112 21.9667 15.9973 22.2225 15.7446 22.5354M16.6664 21.7844L16.6963 21.8427M19.3888 25.839L19.3882 25.7734M19.3888 25.839C19.3889 25.839 19.389 25.839 19.3891 25.839L19.3882 25.7734M19.3888 25.839C18.8736 25.846 18.3593 25.7902 17.857 25.6729M19.3882 25.7734C18.8781 25.7803 18.369 25.7252 17.8718 25.609M17.857 25.6729C17.8571 25.6729 17.8572 25.673 17.8572 25.673L17.8718 25.609M17.857 25.6729C17.4006 25.5693 16.9614 25.3984 16.5533 25.1656M17.857 25.6729C17.857 25.6729 17.8569 25.6729 17.8569 25.6729L17.8718 25.609M17.8718 25.609L16.5533 25.1656M16.5533 25.1656C16.5534 25.1657 16.5535 25.1657 16.5536 25.1658L16.5855 25.1086L16.553 25.1655C16.5531 25.1655 16.5532 25.1656 16.5533 25.1656ZM16.5533 25.1656C16.211 24.9745 15.9138 24.7096 15.6821 24.3896L15.6819 24.3894C15.4878 24.1188 15.386 23.791 15.392 23.4561L15.392 23.4536L15.3921 23.4536C15.411 23.1173 15.5344 22.7957 15.7446 22.5354M16.5533 25.1656L15.7352 24.3511C15.5493 24.0922 15.4518 23.7782 15.4575 23.4573C15.4757 23.1345 15.5941 22.8261 15.7956 22.5766M15.7446 22.5354L15.7956 22.5766M15.7446 22.5354C15.7446 22.5354 15.7446 22.5354 15.7446 22.5354L15.7956 22.5766M15.7956 22.5766C16.0426 22.2707 16.3493 22.0208 16.6963 21.8427M16.6963 21.8427C17.5314 21.4186 18.4556 21.2095 19.3882 21.2336C20.3117 21.2262 21.2223 21.4548 22.037 21.8985C22.3394 22.039 22.6017 22.2559 22.7991 22.5286C22.9965 22.8014 23.1224 23.121 23.1649 23.4573L16.6963 21.8427ZM25.4542 36.0134L50.5349 21.2519L50.5352 21.2524C51.2346 20.8536 51.9864 20.5594 52.7677 20.3786L52.7681 20.3785C54.5049 19.966 56.3114 19.966 58.0483 20.3785L58.0486 20.3786C58.8302 20.5593 59.5824 20.8535 60.2822 21.2521C60.2823 21.2522 60.2825 21.2523 60.2826 21.2524L62.2529 22.4129L62.2544 22.4138C63.3101 22.9986 64.2146 23.831 64.8933 24.8425C65.4467 25.6744 65.6873 26.6823 65.5705 27.681C65.0926 31.3848 61.6623 35.0915 55.3627 38.8008L55.3615 38.8015C49.6279 42.3428 43.1347 44.4051 36.444 44.8097C34.809 44.8849 33.1712 44.7492 31.5695 44.406L31.569 44.4059C30.1186 44.1071 28.7225 43.5803 27.4306 42.8443C27.4305 42.8442 27.4303 42.8441 27.4302 42.844L25.4513 41.6791L25.4515 41.6788L25.4454 41.676C24.8977 41.4249 24.4248 41.0302 24.0748 40.532C23.7261 40.0355 23.5118 39.4537 23.4538 38.8456C23.5129 38.2375 23.7279 37.6561 24.0771 37.1599C24.4275 36.662 24.9006 36.2676 25.4482 36.0165L25.4484 36.0168L25.4542 36.0134ZM11.402 14.7131C11.2925 14.5713 11.2167 14.4055 11.1806 14.2287C11.1736 14.0602 11.21 13.8929 11.2862 13.7434C11.3631 13.5924 11.4779 13.4651 11.6185 13.3744L11.6185 13.3744L11.6196 13.3736L11.8238 13.2358L11.8239 13.2357L11.8239 13.2356L11.8216 13.2322L11.827 13.2286C12.272 12.985 12.7672 12.8524 13.272 12.8417L13.272 12.8418L13.274 12.8417C13.7952 12.8151 14.3158 12.9068 14.7982 13.1101L15.0316 13.2299L16.6615 14.1918L16.6948 14.2115L16.7281 14.1918L24.3525 9.69661C25.8514 8.88452 27.5284 8.47575 29.2251 8.50884L29.2251 8.50889L29.2277 8.50884C30.9244 8.47556 32.6015 8.88434 34.1003 9.69662C34.1007 9.69681 34.101 9.69699 34.1013 9.69718L43.9231 15.482L43.923 15.4823L43.9291 15.4851C44.4768 15.7363 44.9499 16.131 45.3001 16.6292C45.6491 17.1257 45.8637 17.7074 45.9221 18.3157C45.8651 18.9247 45.6517 19.5076 45.3033 20.0054C44.9539 20.5049 44.4811 20.901 43.9333 21.1535L43.9331 21.1532L43.9275 21.1565L25.3954 32.064C25.3951 32.0642 25.3947 32.0643 25.3944 32.0645C23.8957 32.8773 22.2186 33.2865 20.5218 33.2538L20.5218 33.2537L20.5192 33.2538C18.8224 33.2864 17.1454 32.8771 15.6466 32.0645L5.82811 26.2806L5.82812 26.2806L5.8267 26.2798C5.24731 25.9575 4.74142 25.5135 4.34252 24.9769L4.34192 24.9762C4.00821 24.541 3.82679 24.0042 3.82679 23.4514C3.82679 22.8986 4.00821 22.3618 4.34193 21.9266L4.34245 21.9259C4.74212 21.39 5.2479 20.9461 5.82679 20.623L5.8268 20.623L5.82813 20.6222L13.4535 16.1264L13.5493 16.0699L13.4535 16.0134L11.8206 15.0506L11.8207 15.0504L11.8155 15.0479C11.6541 14.9708 11.5124 14.8562 11.402 14.7131ZM25.4786 18.6183C25.7107 18.9379 26.0078 19.2026 26.3497 19.3942C26.7578 19.627 27.197 19.798 27.6535 19.9016C28.6597 20.1332 29.7051 20.121 30.7058 19.866C31.152 19.7527 31.5788 19.5714 31.972 19.3284C32.2743 19.1752 32.5312 18.9429 32.7165 18.6554C32.9023 18.3671 33.0094 18.0336 33.0269 17.6893L33.0279 17.6893L33.0265 17.6777C32.9824 17.3305 32.8524 17.0004 32.6485 16.7184C32.4451 16.4371 32.1748 16.2129 31.863 16.0671C31.0389 15.6202 30.1186 15.3898 29.1852 15.3967C28.2776 15.3747 27.3782 15.5713 26.5598 15.9699V15.9642L26.4644 16.013C26.1085 16.195 25.7941 16.4508 25.5411 16.7641C25.3309 17.0243 25.2075 17.3459 25.1886 17.6823L25.1885 17.6823L25.1885 17.6849C25.1831 18.0196 25.2848 18.3472 25.4784 18.6179L25.4786 18.6183Z" stroke="url(#paint9_linear_220_14890)" stroke-width="0.131111"/>
</g>
<defs>
<filter id="filter0_di_220_14890" x="0.388781" y="14.0405" width="85.3108" height="54.8118" filterUnits="userSpaceOnUse" color-interpolation-filters="sRGB">
<feFlood flood-opacity="0" result="BackgroundImageFix"/>
<feColorMatrix in="SourceAlpha" type="matrix" values="0 0 0 0 0 0 0 0 0 0 0 0 0 0 0 0 0 0 127 0" result="hardAlpha"/>
<feOffset dy="5.24444"/>
<feGaussianBlur stdDeviation="3.27778"/>
<feComposite in2="hardAlpha" operator="out"/>
<feColorMatrix type="matrix" values="0 0 0 0 0.0980392 0 0 0 0 0.211765 0 0 0 0 0.482353 0 0 0 0.5 0"/>
<feBlend mode="normal" in2="BackgroundImageFix" result="effect1_dropShadow_220_14890"/>
<feBlend mode="normal" in="SourceGraphic" in2="effect1_dropShadow_220_14890" result="shape"/>
<feColorMatrix in="SourceAlpha" type="matrix" values="0 0 0 0 0 0 0 0 0 0 0 0 0 0 0 0 0 0 127 0" result="hardAlpha"/>
<feOffset/>
<feGaussianBlur stdDeviation="2.62222"/>
<feComposite in2="hardAlpha" operator="arithmetic" k2="-1" k3="1"/>
<feColorMatrix type="matrix" values="0 0 0 0 1 0 0 0 0 1 0 0 0 0 1 0 0 0 0.25 0"/>
<feBlend mode="normal" in2="shape" result="effect2_innerShadow_220_14890"/>
</filter>
<filter id="filter1_f_220_14890" x="5.57822" y="13.6541" width="62.7479" height="38.4202" filterUnits="userSpaceOnUse" color-interpolation-filters="sRGB">
<feFlood flood-opacity="0" result="BackgroundImageFix"/>
<feBlend mode="normal" in="SourceGraphic" in2="BackgroundImageFix" result="shape"/>
<feGaussianBlur stdDeviation="1.31111" result="effect1_foregroundBlur_220_14890"/>
</filter>
<filter id="filter2_b_220_14890" x="2.45012" y="12.9101" width="64.5602" height="35.798" filterUnits="userSpaceOnUse" color-interpolation-filters="sRGB">
<feFlood flood-opacity="0" result="BackgroundImageFix"/>
<feGaussianBlur in="BackgroundImageFix" stdDeviation="0.655556"/>
<feComposite in2="SourceAlpha" operator="in" result="effect1_backgroundBlur_220_14890"/>
<feBlend mode="normal" in="SourceGraphic" in2="effect1_backgroundBlur_220_14890" result="shape"/>
</filter>
<filter id="filter3_bi_220_14890" x="-0.172103" y="4.50807" width="69.7702" height="44.3208" filterUnits="userSpaceOnUse" color-interpolation-filters="sRGB">
<feFlood flood-opacity="0" result="BackgroundImageFix"/>
<feGaussianBlur in="BackgroundImageFix" stdDeviation="1.96667"/>
<feComposite in2="SourceAlpha" operator="in" result="effect1_backgroundBlur_220_14890"/>
<feBlend mode="normal" in="SourceGraphic" in2="effect1_backgroundBlur_220_14890" result="shape"/>
<feColorMatrix in="SourceAlpha" type="matrix" values="0 0 0 0 0 0 0 0 0 0 0 0 0 0 0 0 0 0 127 0" result="hardAlpha"/>
<feOffset/>
<feGaussianBlur stdDeviation="0.983333"/>
<feComposite in2="hardAlpha" operator="arithmetic" k2="-1" k3="1"/>
<feColorMatrix type="matrix" values="0 0 0 0 1 0 0 0 0 1 0 0 0 0 1 0 0 0 0.5 0"/>
<feBlend mode="normal" in2="shape" result="effect2_innerShadow_220_14890"/>
</filter>
<linearGradient id="paint0_linear_220_14890" x1="75.7055" y1="23.3255" x2="9.018" y2="44.7819" gradientUnits="userSpaceOnUse">
<stop stop-color="#00298D"/>
<stop offset="0.189268" stop-color="#2349A7"/>
<stop offset="0.646435" stop-color="#3155AD"/>
<stop offset="1" stop-color="#032C91"/>
</linearGradient>
<radialGradient id="paint1_radial_220_14890" cx="0" cy="0" r="1" gradientUnits="userSpaceOnUse" gradientTransform="translate(43.0441 36.2019) rotate(90) scale(28.6214 49.5543)">
<stop offset="0.0520833" stop-color="#062E8D"/>
<stop offset="1" stop-color="#2968FE"/>
</radialGradient>
<linearGradient id="paint2_linear_220_14890" x1="31.5291" y1="14.153" x2="51.1301" y2="55.8402" gradientUnits="userSpaceOnUse">
<stop stop-color="white" stop-opacity="0"/>
<stop offset="1" stop-color="white" stop-opacity="0.43"/>
</linearGradient>
<linearGradient id="paint3_linear_220_14890" x1="23.1717" y1="26.3676" x2="18.629" y2="18.4686" gradientUnits="userSpaceOnUse">
<stop stop-color="#E9F7FF"/>
<stop offset="0.579246" stop-color="#D7F0FF" stop-opacity="0.57"/>
<stop offset="0.956471" stop-color="#BDE7FF" stop-opacity="0"/>
</linearGradient>
<linearGradient id="paint4_linear_220_14890" x1="32.9688" y1="20.5956" x2="28.4287" y2="12.6981" gradientUnits="userSpaceOnUse">
<stop stop-color="#E9F7FF"/>
<stop offset="0.579246" stop-color="#D7F0FF" stop-opacity="0.57"/>
<stop offset="0.956471" stop-color="#BDE7FF" stop-opacity="0"/>
</linearGradient>
<linearGradient id="paint5_linear_220_14890" x1="13.4288" y1="18.6361" x2="9.41073" y2="16.1917" gradientUnits="userSpaceOnUse">
<stop stop-color="#E9F7FF"/>
<stop offset="0.579246" stop-color="#D7F0FF" stop-opacity="0.57"/>
<stop offset="0.956471" stop-color="#BDE7FF" stop-opacity="0"/>
</linearGradient>
<linearGradient id="paint6_linear_220_14890" x1="46.0354" y1="43.817" x2="24.6056" y2="2.745" gradientUnits="userSpaceOnUse">
<stop stop-color="#E9F7FF"/>
<stop offset="0.579246" stop-color="#D7F0FF" stop-opacity="0.57"/>
<stop offset="0.956471" stop-color="#BDE7FF" stop-opacity="0"/>
</linearGradient>
<linearGradient id="paint7_linear_220_14890" x1="65.7416" y1="56.7424" x2="38.6367" y2="12.1913" gradientUnits="userSpaceOnUse">
<stop stop-color="#E9F7FF"/>
<stop offset="0.579246" stop-color="#D7F0FF" stop-opacity="0.57"/>
<stop offset="0.956471" stop-color="#BDE7FF" stop-opacity="0"/>
</linearGradient>
<linearGradient id="paint8_linear_220_14890" x1="3.76123" y1="5.29332" x2="62.1113" y2="49.5777" gradientUnits="userSpaceOnUse">
<stop offset="0.0529546" stop-color="#3FA6E0"/>
<stop offset="0.461273" stop-color="#79CFFF"/>
<stop offset="1" stop-color="#79CFFF"/>
</linearGradient>
<linearGradient id="paint9_linear_220_14890" x1="64.0452" y1="50.2201" x2="8.01352" y2="11.9591" gradientUnits="userSpaceOnUse">
<stop stop-color="#E9F7FF"/>
<stop offset="0.923987" stop-color="#BDE7FF" stop-opacity="0"/>
</linearGradient>
</defs>
</svg>
