<svg width="87" height="70" viewBox="0 0 87 70" fill="none" xmlns="http://www.w3.org/2000/svg">
<path d="M79.8588 35.1902C79.8588 40.5229 76.3218 45.8527 69.286 49.9219C55.188 58.0633 32.3314 58.0648 18.2334 49.9219C10.7098 45.5755 7.24209 39.7887 7.75053 34.0977C7.70601 34.3026 7.67256 34.5098 7.65032 34.7184C6.97239 42.1476 9.25819 47.2504 18.2334 52.4283C32.3314 60.5712 55.188 60.5697 69.286 52.4283C77.3578 47.765 80.0238 41.8513 79.8588 35.1902Z" fill="url(#paint0_linear_220_14888)"/>
<g filter="url(#filter0_di_220_14888)">
<path d="M43.7614 56.0288C63.6988 56.0288 79.8612 46.6938 79.8612 35.1785C79.8612 23.6631 63.6988 14.3281 43.7614 14.3281C23.8241 14.3281 7.66162 23.6631 7.66162 35.1785C7.66162 46.6938 23.8241 56.0288 43.7614 56.0288Z" fill="url(#paint1_radial_220_14888)"/>
<path d="M79.7957 35.1785C79.7957 40.9028 75.7779 46.0977 69.2551 49.8652C62.7339 53.6316 53.7207 55.9633 43.7614 55.9633C33.8022 55.9633 24.7889 53.6316 18.2678 49.8652C11.7449 46.0977 7.72718 40.9028 7.72718 35.1785C7.72718 29.4541 11.7449 24.2593 18.2678 20.4918C24.7889 16.7254 33.8022 14.3937 43.7614 14.3937C53.7207 14.3937 62.7339 16.7254 69.2551 20.4918C75.7779 24.2593 79.7957 29.4541 79.7957 35.1785Z" stroke="url(#paint2_linear_220_14888)" stroke-width="0.131111" stroke-linejoin="round"/>
</g>
<g style="mix-blend-mode:multiply" filter="url(#filter1_f_220_14888)">
<path d="M36.5558 42.0108L63.5513 26.8502V24.8047L36.5558 39.9653L19.2024 30.2204V32.2659L36.5558 42.0108Z" fill="#083090" fill-opacity="0.4"/>
<path d="M71.8895 27.2109C71.8763 27.347 71.8311 27.4759 71.7492 27.5869C71.6672 27.6979 71.5685 27.7475 71.4232 27.8426L37.68 46.7947C37.3315 46.9671 36.946 47.057 36.555 47.057C36.164 47.057 35.7785 46.9671 35.43 46.7947L8.99076 32.0997C8.92947 32.0997 8.316 33.6747 8.316 33.6747L35.4349 48.8401C35.7835 49.0126 36.1689 49.1025 36.56 49.1025C36.951 49.1025 37.3365 49.0126 37.685 48.8401L71.4281 29.8893C71.5564 29.8336 71.6672 29.7458 71.7492 29.6348C71.8311 29.5238 71.8812 29.3937 71.8945 29.2576L71.8895 27.2109Z" fill="#083090" fill-opacity="0.4"/>
</g>
<g filter="url(#filter2_b_220_14888)">
<path d="M36.5536 40.1983L63.5491 25.0377V22.9922L36.5536 38.1528L19.2002 28.4079V30.4534L36.5536 40.1983Z" fill="url(#paint3_linear_220_14888)"/>
<path d="M71.8864 25.3984C71.8732 25.5345 71.828 25.6634 71.7461 25.7744C71.6641 25.8854 71.5654 25.935 71.4201 26.0301L37.677 44.9822C37.3284 45.1546 36.943 45.2445 36.5519 45.2445C36.1609 45.2445 35.7754 45.1546 35.4269 44.9822L1.68378 26.0313C1.55455 25.9761 1.44239 25.889 1.35843 25.7786C1.27446 25.6682 1.2216 25.5384 1.20508 25.402C1.20508 25.402 1.20508 27.2069 1.20508 27.4475C1.2216 27.5839 1.27446 27.7137 1.35843 27.8241C1.44239 27.9345 1.55455 28.0216 1.68378 28.0768L35.4319 47.0276C35.7804 47.2001 36.1659 47.29 36.5569 47.29C36.9479 47.29 37.3334 47.2001 37.6819 47.0276L71.425 28.0768C71.5533 28.0211 71.6641 27.9333 71.7461 27.8223C71.828 27.7113 71.8781 27.5812 71.8914 27.4451L71.8864 25.3984Z" fill="url(#paint4_linear_220_14888)"/>
</g>
<g filter="url(#filter3_bi_220_14888)">
<path d="M3.90732 24.7537C3.55838 24.578 3.16954 24.4907 2.77674 24.4999C2.38736 24.4951 2.00323 24.5875 1.661 24.7682C1.53422 24.8251 1.42533 24.9138 1.34553 25.0253C1.26574 25.1367 1.21793 25.2669 1.20703 25.4023C1.22355 25.5386 1.27641 25.6684 1.36038 25.7788C1.44435 25.8892 1.5565 25.9763 1.68574 26.0316L35.4301 44.9824C35.7786 45.1548 36.1641 45.2447 36.5551 45.2447C36.9461 45.2447 37.3316 45.1548 37.6801 44.9824L71.4233 26.0316C71.5592 25.987 71.6774 25.9021 71.7611 25.7888C71.8447 25.6754 71.8898 25.5394 71.8898 25.3999C71.8898 25.2603 71.8447 25.1243 71.7611 25.011C71.6774 24.8977 71.5592 24.8127 71.4233 24.7682C71.0745 24.5965 70.6891 24.507 70.2983 24.507C69.9074 24.507 69.522 24.5965 69.1733 24.7682L36.5496 43.0861L3.90732 24.7537ZM63.5451 22.9922L39.9252 9.72784C39.6871 9.59924 39.4252 9.51748 39.1546 9.4872C38.8618 9.44995 38.5648 9.4593 38.2751 9.51487C38.018 9.56042 37.7736 9.65798 37.5577 9.80124C37.3898 9.90642 37.2694 10.0699 37.2212 10.2585L35.0887 21.0249L23.7594 22.7612C23.5345 22.7928 23.3164 22.8599 23.1137 22.9597C22.9474 23.0378 22.8038 23.1548 22.6956 23.3002L19.1974 28.4055L36.5496 38.1517L63.5451 22.9922Z" fill="url(#paint5_linear_220_14888)" fill-opacity="0.35"/>
<path d="M2.77593 24.5654L2.77826 24.5654C3.15988 24.5565 3.53758 24.6412 3.87652 24.8116L36.5175 43.1433L36.5496 43.1613L36.5817 43.1433L69.2022 24.827C69.2027 24.8267 69.2032 24.8265 69.2038 24.8262C69.543 24.6595 69.918 24.5726 70.2983 24.5726C70.6792 24.5726 71.0546 24.6597 71.3943 24.827L71.394 24.8276L71.4029 24.8305C71.5261 24.8709 71.6329 24.9477 71.7083 25.0499C71.7838 25.1521 71.8242 25.2745 71.8242 25.3999C71.8242 25.5252 71.7838 25.6476 71.7083 25.7498C71.6329 25.852 71.5261 25.9289 71.4029 25.9693L71.4025 25.9681L71.3912 25.9744L37.6511 44.9236C37.6506 44.9239 37.65 44.9241 37.6495 44.9244C37.3105 45.0918 36.9355 45.1792 36.5551 45.1792C36.1747 45.1792 35.7998 45.0918 35.4608 44.9244L1.71784 25.9744L1.71802 25.9741L1.7115 25.9713C1.59256 25.9204 1.48955 25.8404 1.41256 25.7391C1.33692 25.6397 1.28892 25.5233 1.27294 25.401C1.28387 25.2799 1.3272 25.1635 1.39884 25.0634C1.47178 24.9616 1.57149 24.8802 1.68784 24.828L1.6879 24.8281L1.69161 24.8261C2.0241 24.6506 2.39743 24.5608 2.77593 24.5654ZM39.8941 9.78553L63.4112 22.9922L36.5496 38.0765L19.292 28.3835L22.7489 23.3384C22.8505 23.2022 22.9853 23.0924 23.1415 23.0191L23.1426 23.0185C23.3391 22.9218 23.5505 22.8568 23.7685 22.8261L23.7693 22.826L35.0986 21.0897L35.1441 21.0828L35.153 21.0377L37.2852 10.273C37.3294 10.1018 37.4391 9.95289 37.5925 9.8568L37.5925 9.85682L37.5939 9.85586C37.8023 9.71762 38.0382 9.62341 38.2866 9.57942L38.2866 9.57943L38.2875 9.57925C38.5704 9.52498 38.8604 9.51586 39.1463 9.55224L39.1473 9.55235C39.4094 9.58168 39.663 9.66084 39.8936 9.78526C39.8938 9.78535 39.8939 9.78544 39.8941 9.78553Z" stroke="url(#paint6_linear_220_14888)" stroke-width="0.131111"/>
</g>
<defs>
<filter id="filter0_di_220_14888" x="1.10607" y="13.017" width="85.3108" height="54.8118" filterUnits="userSpaceOnUse" color-interpolation-filters="sRGB">
<feFlood flood-opacity="0" result="BackgroundImageFix"/>
<feColorMatrix in="SourceAlpha" type="matrix" values="0 0 0 0 0 0 0 0 0 0 0 0 0 0 0 0 0 0 127 0" result="hardAlpha"/>
<feOffset dy="5.24444"/>
<feGaussianBlur stdDeviation="3.27778"/>
<feComposite in2="hardAlpha" operator="out"/>
<feColorMatrix type="matrix" values="0 0 0 0 0.0980392 0 0 0 0 0.211765 0 0 0 0 0.482353 0 0 0 0.5 0"/>
<feBlend mode="normal" in2="BackgroundImageFix" result="effect1_dropShadow_220_14888"/>
<feBlend mode="normal" in="SourceGraphic" in2="effect1_dropShadow_220_14888" result="shape"/>
<feColorMatrix in="SourceAlpha" type="matrix" values="0 0 0 0 0 0 0 0 0 0 0 0 0 0 0 0 0 0 127 0" result="hardAlpha"/>
<feOffset/>
<feGaussianBlur stdDeviation="2.62222"/>
<feComposite in2="hardAlpha" operator="arithmetic" k2="-1" k3="1"/>
<feColorMatrix type="matrix" values="0 0 0 0 1 0 0 0 0 1 0 0 0 0 1 0 0 0 0.25 0"/>
<feBlend mode="normal" in2="shape" result="effect2_innerShadow_220_14888"/>
</filter>
<filter id="filter1_f_220_14888" x="5.6937" y="22.1825" width="68.8231" height="29.5423" filterUnits="userSpaceOnUse" color-interpolation-filters="sRGB">
<feFlood flood-opacity="0" result="BackgroundImageFix"/>
<feBlend mode="normal" in="SourceGraphic" in2="BackgroundImageFix" result="shape"/>
<feGaussianBlur stdDeviation="1.31111" result="effect1_foregroundBlur_220_14888"/>
</filter>
<filter id="filter2_b_220_14888" x="-0.106033" y="21.6811" width="73.3085" height="26.9201" filterUnits="userSpaceOnUse" color-interpolation-filters="sRGB">
<feFlood flood-opacity="0" result="BackgroundImageFix"/>
<feGaussianBlur in="BackgroundImageFix" stdDeviation="0.655556"/>
<feComposite in2="SourceAlpha" operator="in" result="effect1_backgroundBlur_220_14888"/>
<feBlend mode="normal" in="SourceGraphic" in2="effect1_backgroundBlur_220_14888" result="shape"/>
</filter>
<filter id="filter3_bi_220_14888" x="-2.7263" y="5.53151" width="78.5493" height="43.6465" filterUnits="userSpaceOnUse" color-interpolation-filters="sRGB">
<feFlood flood-opacity="0" result="BackgroundImageFix"/>
<feGaussianBlur in="BackgroundImageFix" stdDeviation="1.96667"/>
<feComposite in2="SourceAlpha" operator="in" result="effect1_backgroundBlur_220_14888"/>
<feBlend mode="normal" in="SourceGraphic" in2="effect1_backgroundBlur_220_14888" result="shape"/>
<feColorMatrix in="SourceAlpha" type="matrix" values="0 0 0 0 0 0 0 0 0 0 0 0 0 0 0 0 0 0 127 0" result="hardAlpha"/>
<feOffset/>
<feGaussianBlur stdDeviation="0.983333"/>
<feComposite in2="hardAlpha" operator="arithmetic" k2="-1" k3="1"/>
<feColorMatrix type="matrix" values="0 0 0 0 1 0 0 0 0 1 0 0 0 0 1 0 0 0 0.5 0"/>
<feBlend mode="normal" in2="shape" result="effect2_innerShadow_220_14888"/>
</filter>
<linearGradient id="paint0_linear_220_14888" x1="76.4226" y1="22.302" x2="9.73504" y2="43.7584" gradientUnits="userSpaceOnUse">
<stop stop-color="#00298D"/>
<stop offset="0.189268" stop-color="#2349A7"/>
<stop offset="0.646435" stop-color="#3155AD"/>
<stop offset="1" stop-color="#032C91"/>
</linearGradient>
<radialGradient id="paint1_radial_220_14888" cx="0" cy="0" r="1" gradientUnits="userSpaceOnUse" gradientTransform="translate(43.7614 35.1785) rotate(90) scale(28.6214 49.5543)">
<stop offset="0.0520833" stop-color="#062E8D"/>
<stop offset="1" stop-color="#2968FE"/>
</radialGradient>
<linearGradient id="paint2_linear_220_14888" x1="32.2464" y1="13.1295" x2="51.8473" y2="54.8168" gradientUnits="userSpaceOnUse">
<stop stop-color="white" stop-opacity="0"/>
<stop offset="1" stop-color="white" stop-opacity="0.43"/>
</linearGradient>
<linearGradient id="paint3_linear_220_14888" x1="63.5935" y1="48.0668" x2="43.319" y2="6.57973" gradientUnits="userSpaceOnUse">
<stop stop-color="#E9F7FF"/>
<stop offset="0.579246" stop-color="#D7F0FF" stop-opacity="0.57"/>
<stop offset="0.956471" stop-color="#BDE7FF" stop-opacity="0"/>
</linearGradient>
<linearGradient id="paint4_linear_220_14888" x1="71.9623" y1="57.3011" x2="49.8225" y2="0.547339" gradientUnits="userSpaceOnUse">
<stop stop-color="#E9F7FF"/>
<stop offset="0.579246" stop-color="#D7F0FF" stop-opacity="0.57"/>
<stop offset="0.956471" stop-color="#BDE7FF" stop-opacity="0"/>
</linearGradient>
<linearGradient id="paint5_linear_220_14888" x1="1.20703" y1="6.37497" x2="60.2123" y2="58.471" gradientUnits="userSpaceOnUse">
<stop offset="0.0529546" stop-color="#3FA6E0"/>
<stop offset="0.461273" stop-color="#79CFFF"/>
<stop offset="1" stop-color="#79CFFF"/>
</linearGradient>
<linearGradient id="paint6_linear_220_14888" x1="70.0404" y1="50.471" x2="12.5249" y2="4.78205" gradientUnits="userSpaceOnUse">
<stop stop-color="#E9F7FF"/>
<stop offset="0.923987" stop-color="#BDE7FF" stop-opacity="0"/>
</linearGradient>
</defs>
</svg>
