<svg width="86" height="70" viewBox="0 0 86 70" fill="none" xmlns="http://www.w3.org/2000/svg">
<path d="M79.3351 35.1989C79.3351 40.5317 75.7981 45.8615 68.7623 49.9307C54.6643 58.0721 31.8077 58.0736 17.7097 49.9307C10.1862 45.5843 6.7184 39.7975 7.22685 34.1064C7.18233 34.3114 7.14887 34.5186 7.12664 34.7272C6.44871 42.1564 8.73451 47.2592 17.7097 52.4371C31.8077 60.58 54.6643 60.5785 68.7623 52.4371C76.8341 47.7737 79.5002 41.8601 79.3351 35.1989Z" fill="url(#paint0_linear_220_14887)"/>
<g filter="url(#filter0_di_220_14887)">
<path d="M43.2373 56.0376C63.1746 56.0376 79.3371 46.7026 79.3371 35.1873C79.3371 23.6719 63.1746 14.3369 43.2373 14.3369C23.2999 14.3369 7.13745 23.6719 7.13745 35.1873C7.13745 46.7026 23.2999 56.0376 43.2373 56.0376Z" fill="url(#paint1_radial_220_14887)"/>
<path d="M79.2715 35.1873C79.2715 40.9116 75.2537 46.1065 68.7309 49.8739C62.2097 53.6404 53.1965 55.9721 43.2373 55.9721C33.278 55.9721 24.2648 53.6404 17.7436 49.8739C11.2208 46.1065 7.20301 40.9116 7.20301 35.1873C7.20301 29.4629 11.2208 24.2681 17.7436 20.5006C24.2648 16.7342 33.278 14.4025 43.2373 14.4025C53.1965 14.4025 62.2097 16.7342 68.7309 20.5006C75.2537 24.2681 79.2715 29.4629 79.2715 35.1873Z" stroke="url(#paint2_linear_220_14887)" stroke-width="0.131111" stroke-linejoin="round"/>
</g>
<g filter="url(#filter1_b_220_14887)">
<path d="M18.0492 17.4107C19.1043 16.863 20.2704 16.5776 21.4531 16.5776C22.6359 16.5776 23.802 16.863 24.857 17.4107C25.1754 17.5992 25.4874 17.8547 25.7313 18.1367C26.0674 17.7898 26.2401 17.3115 26.2614 16.8231C26.2206 16.3899 26.0686 15.9754 25.8209 15.6219C25.5732 15.2683 25.2386 14.9883 24.851 14.8102C23.7962 14.2615 22.63 13.9756 21.4471 13.9756C20.2643 13.9756 19.098 14.2615 18.0433 14.8102C17.6559 14.9883 17.3215 15.2685 17.074 15.622C16.8266 15.9756 16.5867 16.2672 16.6105 16.8034C16.6323 17.2941 16.8227 17.8092 17.1603 18.1579C17.4067 17.8739 17.7284 17.6013 18.0492 17.4107Z" fill="url(#paint3_linear_220_14887)"/>
<path d="M64.7683 39.6094C64.7278 40.0425 64.5598 40.416 64.3123 40.7696C64.0649 41.1232 63.7522 41.4125 63.3649 41.5907C62.3182 42.1608 61.1814 42.4367 59.9962 42.4139H53.7634C52.5781 42.4371 51.3759 42.1929 50.3293 41.6224L31.6996 30.6049C27.7789 31.2802 23.7709 31.2183 19.8718 30.4223C16.4451 29.8074 13.2145 28.352 10.4559 26.1802C9.44407 25.4258 8.61019 24.4486 8.01555 23.3204C7.42091 22.1922 7.08064 20.9418 7.01978 19.6611V19.6719C7.01978 19.6719 7.03924 21.4915 7.01978 22.0822C7.05085 23.3954 7.37785 24.6835 7.97521 25.8458C8.57258 27.0081 9.42414 28.0131 10.4633 28.7822C13.2204 30.9514 16.4481 32.4057 19.8718 33.0214C23.771 33.8165 27.7788 33.8784 31.6996 33.2039L50.3263 44.2244C51.373 44.7946 52.5443 45.0819 53.7295 45.0591H59.9533C61.1385 45.0821 62.3099 44.7948 63.3565 44.2244C63.744 44.0463 64.0787 43.7663 64.3264 43.4127C64.5741 43.0592 64.7261 42.6447 64.7668 42.2115" fill="url(#paint4_linear_220_14887)"/>
</g>
<g filter="url(#filter2_bi_220_14887)">
<path d="M52.7379 26.7943H55.1454C55.7378 26.7828 56.3232 26.9265 56.8462 27.2116C57.0403 27.3002 57.2079 27.4401 57.3319 27.617C57.4558 27.7939 57.5316 28.0013 57.5514 28.2181V31.0657H59.9589C61.144 31.0424 62.3153 31.3291 63.3621 31.8988C63.7498 32.077 64.0846 32.3573 64.3323 32.7111C64.58 33.065 64.7319 33.4797 64.7724 33.9132V39.6084C64.7319 40.0415 64.5802 40.4559 64.3328 40.8094C64.0853 41.163 63.7509 41.4431 63.3636 41.6213C62.3171 42.1922 61.1457 42.4795 59.9604 42.4559H53.7351C52.5498 42.4791 51.3785 42.1919 50.3319 41.6213L31.7022 30.6054C27.7815 31.2807 23.7735 31.2188 19.8744 30.4228C16.4477 29.8079 13.2171 28.3524 10.4585 26.1806C9.41876 25.412 8.56683 24.4071 7.96941 23.2447C7.37198 22.0823 7.04528 20.7939 7.01489 19.4806C7.13042 18.1531 7.53465 16.869 8.19792 15.7226C8.86118 14.5761 9.76661 13.5965 10.8477 12.8557C13.714 10.751 17.0221 9.36476 20.5062 8.80833C24.4199 8.09462 28.4276 8.11542 32.3341 8.8697C35.7902 9.4541 39.0606 10.8742 41.8742 13.0122C42.9342 13.7671 43.8126 14.7594 44.4427 15.9139C45.0728 17.0684 45.4381 18.3547 45.5109 19.6754V22.526H50.3244C50.9173 22.5147 51.5031 22.6583 52.0268 22.9434C52.2206 23.0322 52.3879 23.1722 52.5115 23.349C52.6352 23.5259 52.7107 23.7332 52.7304 23.9498V26.7943H52.7379ZM26.2659 16.8217C26.2251 16.3885 26.0732 15.974 25.8254 15.6205C25.5777 15.2669 25.2431 14.9869 24.8555 14.8088C23.8008 14.2601 22.6345 13.9742 21.4517 13.9742C20.2688 13.9742 19.1026 14.2601 18.0478 14.8088C17.6604 14.987 17.326 15.2671 17.0785 15.6206C16.8311 15.9742 16.6015 16.42 16.6389 16.8217C16.6793 17.255 16.8309 17.6697 17.0784 18.0235C17.3258 18.3774 17.6603 18.6577 18.0478 18.8362C19.1028 19.3839 20.2689 19.6693 21.4517 19.6693C22.6344 19.6693 23.8005 19.3839 24.8555 18.8362C25.243 18.6576 25.5775 18.3772 25.8252 18.0234C26.0729 17.6696 26.2249 17.2551 26.2659 16.8217Z" fill="url(#paint5_linear_220_14887)" fill-opacity="0.35"/>
<path d="M55.1454 26.8599L55.1467 26.8599C55.7276 26.8486 56.3018 26.9895 56.8149 27.2692L56.8148 27.2693L56.819 27.2713C57.0023 27.3549 57.1609 27.4872 57.2782 27.6546C57.3949 27.8212 57.4666 28.0167 57.4859 28.2211V31.0657V31.1312H57.5514L59.9589 31.1312L59.9602 31.1312C61.1338 31.1081 62.2939 31.3921 63.3307 31.9563L63.3307 31.9565L63.3347 31.9583C63.7117 32.1316 64.0375 32.4043 64.2786 32.7487C64.5192 33.0923 64.667 33.4951 64.7069 33.9163V39.6053C64.667 40.0261 64.5194 40.4285 64.2791 40.7718C64.0382 41.116 63.7128 41.3885 63.3362 41.5617L63.3361 41.5616L63.3322 41.5637C62.2957 42.1292 61.1355 42.4137 59.9617 42.3904H59.9604L53.7351 42.3904L53.7338 42.3904C52.5604 42.4134 51.4006 42.1291 50.3643 41.5643C50.364 41.5641 50.3636 41.5639 50.3633 41.5637L31.7356 30.549L31.7149 30.5367L31.6911 30.5408C27.7784 31.2147 23.7786 31.1529 19.8875 30.3586L19.8859 30.3583C16.4699 29.7453 13.2493 28.2943 10.499 26.1291L10.4974 26.1279C9.46593 25.3653 8.62058 24.3682 8.02771 23.2147C7.43539 22.0623 7.11119 20.7849 7.08051 19.4826C7.19563 18.1659 7.59684 16.8924 8.25466 15.7554C8.91308 14.6173 9.81182 13.645 10.8848 12.9097L10.8848 12.9098L10.8865 12.9085C13.7444 10.81 17.0428 9.42784 20.5165 8.87306L20.5165 8.87308L20.5179 8.87282C24.4237 8.16057 28.4231 8.18132 32.3216 8.93406L32.3216 8.93408L32.3231 8.93434C35.7687 9.51696 39.0293 10.9327 41.8346 13.0644L41.8345 13.0644L41.8362 13.0656C42.888 13.8146 43.7597 14.7994 44.3851 15.9453C45.0103 17.0906 45.3729 18.3668 45.4454 19.6772V22.526V22.5916H45.5109L50.3244 22.5916L50.3257 22.5916C50.9071 22.5805 51.4817 22.7213 51.9954 23.0009L51.9953 23.0011L51.9994 23.003C52.1825 23.0868 52.3407 23.2192 52.4578 23.3866C52.5743 23.5532 52.6458 23.7485 52.6649 23.9528V26.7943V26.8599H52.7304H52.7379L55.1454 26.8599ZM26.3312 16.8279L26.3323 16.828L26.3312 16.8156C26.2893 16.3711 26.1334 15.9458 25.8791 15.5829C25.6251 15.2204 25.282 14.9329 24.8844 14.7499C23.8207 14.1969 22.6446 13.9086 21.4517 13.9086C20.2587 13.9086 19.0826 14.1969 18.0189 14.7499C17.6215 14.933 17.2786 15.2205 17.0248 15.583C16.7764 15.938 16.5338 16.4009 16.5736 16.8278C16.6151 17.2724 16.7706 17.6979 17.0247 18.0611C17.2784 18.4239 17.6214 18.7117 18.0189 18.8951C19.0829 19.4471 20.2589 19.7348 21.4517 19.7348C22.6444 19.7348 23.8204 19.4471 24.8844 18.8951C25.2819 18.7115 25.625 18.4237 25.8789 18.061C26.1332 17.6979 26.2891 17.2724 26.3312 16.8279Z" stroke="url(#paint6_linear_220_14887)" stroke-width="0.131111"/>
</g>
<defs>
<filter id="filter0_di_220_14887" x="0.581896" y="13.0258" width="85.3108" height="54.8118" filterUnits="userSpaceOnUse" color-interpolation-filters="sRGB">
<feFlood flood-opacity="0" result="BackgroundImageFix"/>
<feColorMatrix in="SourceAlpha" type="matrix" values="0 0 0 0 0 0 0 0 0 0 0 0 0 0 0 0 0 0 127 0" result="hardAlpha"/>
<feOffset dy="5.24444"/>
<feGaussianBlur stdDeviation="3.27778"/>
<feComposite in2="hardAlpha" operator="out"/>
<feColorMatrix type="matrix" values="0 0 0 0 0.0980392 0 0 0 0 0.211765 0 0 0 0 0.482353 0 0 0 0.5 0"/>
<feBlend mode="normal" in2="BackgroundImageFix" result="effect1_dropShadow_220_14887"/>
<feBlend mode="normal" in="SourceGraphic" in2="effect1_dropShadow_220_14887" result="shape"/>
<feColorMatrix in="SourceAlpha" type="matrix" values="0 0 0 0 0 0 0 0 0 0 0 0 0 0 0 0 0 0 127 0" result="hardAlpha"/>
<feOffset/>
<feGaussianBlur stdDeviation="2.62222"/>
<feComposite in2="hardAlpha" operator="arithmetic" k2="-1" k3="1"/>
<feColorMatrix type="matrix" values="0 0 0 0 1 0 0 0 0 1 0 0 0 0 1 0 0 0 0.25 0"/>
<feBlend mode="normal" in2="shape" result="effect2_innerShadow_220_14887"/>
</filter>
<filter id="filter1_b_220_14887" x="5.70866" y="12.6645" width="60.3708" height="33.7072" filterUnits="userSpaceOnUse" color-interpolation-filters="sRGB">
<feFlood flood-opacity="0" result="BackgroundImageFix"/>
<feGaussianBlur in="BackgroundImageFix" stdDeviation="0.655556"/>
<feComposite in2="SourceAlpha" operator="in" result="effect1_backgroundBlur_220_14887"/>
<feBlend mode="normal" in="SourceGraphic" in2="effect1_backgroundBlur_220_14887" result="shape"/>
</filter>
<filter id="filter2_bi_220_14887" x="3.08156" y="4.35475" width="65.6242" height="42.0356" filterUnits="userSpaceOnUse" color-interpolation-filters="sRGB">
<feFlood flood-opacity="0" result="BackgroundImageFix"/>
<feGaussianBlur in="BackgroundImageFix" stdDeviation="1.96667"/>
<feComposite in2="SourceAlpha" operator="in" result="effect1_backgroundBlur_220_14887"/>
<feBlend mode="normal" in="SourceGraphic" in2="effect1_backgroundBlur_220_14887" result="shape"/>
<feColorMatrix in="SourceAlpha" type="matrix" values="0 0 0 0 0 0 0 0 0 0 0 0 0 0 0 0 0 0 127 0" result="hardAlpha"/>
<feOffset/>
<feGaussianBlur stdDeviation="0.983333"/>
<feComposite in2="hardAlpha" operator="arithmetic" k2="-1" k3="1"/>
<feColorMatrix type="matrix" values="0 0 0 0 1 0 0 0 0 1 0 0 0 0 1 0 0 0 0.5 0"/>
<feBlend mode="normal" in2="shape" result="effect2_innerShadow_220_14887"/>
</filter>
<linearGradient id="paint0_linear_220_14887" x1="75.8989" y1="22.3108" x2="9.21136" y2="43.7672" gradientUnits="userSpaceOnUse">
<stop stop-color="#00298D"/>
<stop offset="0.189268" stop-color="#2349A7"/>
<stop offset="0.646435" stop-color="#3155AD"/>
<stop offset="1" stop-color="#032C91"/>
</linearGradient>
<radialGradient id="paint1_radial_220_14887" cx="0" cy="0" r="1" gradientUnits="userSpaceOnUse" gradientTransform="translate(43.2373 35.1873) rotate(90) scale(28.6214 49.5543)">
<stop offset="0.0520833" stop-color="#062E8D"/>
<stop offset="1" stop-color="#2968FE"/>
</radialGradient>
<linearGradient id="paint2_linear_220_14887" x1="31.7222" y1="13.1383" x2="51.3232" y2="54.8256" gradientUnits="userSpaceOnUse">
<stop stop-color="white" stop-opacity="0"/>
<stop offset="1" stop-color="white" stop-opacity="0.43"/>
</linearGradient>
<linearGradient id="paint3_linear_220_14887" x1="26.2711" y1="20.0705" x2="21.0178" y2="10.445" gradientUnits="userSpaceOnUse">
<stop stop-color="#E9F7FF"/>
<stop offset="0.579246" stop-color="#D7F0FF" stop-opacity="0.57"/>
<stop offset="0.956471" stop-color="#BDE7FF" stop-opacity="0"/>
</linearGradient>
<linearGradient id="paint4_linear_220_14887" x1="64.8263" y1="56.6756" x2="32.6656" y2="-1.37521" gradientUnits="userSpaceOnUse">
<stop stop-color="#E9F7FF"/>
<stop offset="0.579246" stop-color="#D7F0FF" stop-opacity="0.57"/>
<stop offset="0.956471" stop-color="#BDE7FF" stop-opacity="0"/>
</linearGradient>
<linearGradient id="paint5_linear_220_14887" x1="26.3275" y1="4.33484" x2="29.8283" y2="47.3345" gradientUnits="userSpaceOnUse">
<stop offset="0.0952749" stop-color="#2092FB"/>
<stop offset="0.487412" stop-color="#79CFFF"/>
<stop offset="1" stop-color="#79CFFF"/>
</linearGradient>
<linearGradient id="paint6_linear_220_14887" x1="63.2612" y1="47.4482" x2="10.8297" y2="11.8098" gradientUnits="userSpaceOnUse">
<stop stop-color="#E9F7FF"/>
<stop offset="0.923987" stop-color="#BDE7FF" stop-opacity="0"/>
</linearGradient>
</defs>
</svg>
