<svg width="50" height="37" viewBox="0 0 50 37" fill="none" xmlns="http://www.w3.org/2000/svg">
<path d="M13.9202 8.88847C14.3143 9.09039 14.7502 9.19563 15.1924 9.19563C15.6345 9.19563 16.0704 9.09039 16.4645 8.88847L17.6266 8.21247V6.95747L16.4571 7.61587C16.0628 7.81733 15.6289 7.92606 15.1868 7.92606C14.7447 7.92606 14.3108 7.82508 13.9165 7.62363C13.7717 7.55808 13.6549 7.46278 13.5624 7.33283C13.4699 7.20287 13.3999 7.05713 13.3848 6.89795C13.3848 6.89795 13.3928 7.87154 13.3928 8.14708C13.4076 8.30664 13.4643 8.45937 13.5569 8.58964C13.6496 8.71991 13.775 8.82304 13.9202 8.88847Z" fill="#002B4E"/>
<path d="M11.0469 18.0742H19.4357C19.8782 18.0827 20.3156 17.9772 20.7064 17.7678C20.8511 17.7022 20.976 17.5993 21.0686 17.4695C21.1612 17.3397 21.2182 17.1877 21.2338 17.0286L21.2258 15.7795V8.20535L22.4024 8.89238C22.7966 9.09383 23.2325 9.19882 23.6746 9.19882C24.1167 9.19882 24.5525 9.09383 24.9468 8.89238C25.0917 8.82693 25.2168 8.724 25.3095 8.59403C25.4021 8.46407 25.4589 8.31171 25.4742 8.15245C25.4742 7.87544 25.4661 6.90332 25.4661 6.90332C25.4509 7.06258 25.3801 7.20542 25.2875 7.33538C25.1949 7.46535 25.0677 7.56558 24.9228 7.63102C24.5286 7.83246 24.1081 7.92665 23.6662 7.92665C23.2242 7.92665 22.7923 7.82959 22.3982 7.62815L21.2243 6.9479V15.7751C21.2088 15.9342 21.1519 16.0865 21.0593 16.2164C20.9667 16.3463 20.8417 16.4493 20.6969 16.515C20.3059 16.7238 19.8687 16.8293 19.4262 16.8214H11.0469" fill="#002B4E"/>
<path d="M11.046 25.147C11.0524 25.2935 11.0109 25.438 10.9278 25.5584C10.8269 25.7032 10.6953 25.8237 10.5427 25.9111C10.3581 26.0187 10.1587 26.0982 9.95109 26.147C9.48873 26.2577 9.00705 26.2577 8.54469 26.147C8.33722 26.0983 8.13809 26.0188 7.95383 25.9111C7.80082 25.8239 7.66901 25.7034 7.56794 25.5584C7.50148 25.4574 7.46342 25.3401 7.45779 25.219V26.3946C7.45077 26.5412 7.49235 26.686 7.57597 26.8061C7.67718 26.9505 7.80867 27.0706 7.96112 27.1581C8.14561 27.266 8.34498 27.3457 8.55272 27.3947C9.01507 27.5054 9.49676 27.5054 9.95912 27.3947C10.1666 27.3457 10.3658 27.266 10.55 27.1581C10.7028 27.0708 10.8346 26.9506 10.9359 26.8061C11.0188 26.6856 11.0603 26.5411 11.054 26.3946" fill="#002B4E"/>
<path d="M21.6637 32.0567C21.2696 32.2586 20.8337 32.3638 20.3915 32.3638C19.9493 32.3638 19.5134 32.2586 19.1193 32.0567L14.8943 29.5908C14.7495 29.5254 14.609 29.4225 14.5164 29.2927C14.4238 29.1629 14.3669 29.0107 14.3516 28.8516C14.3516 28.8516 14.3596 29.8244 14.3596 30.1007C14.3747 30.2599 14.4314 30.4122 14.5239 30.5421C14.6164 30.6721 14.7415 30.7751 14.8863 30.8406C14.8863 30.8406 18.7339 33.1066 19.1281 33.308C19.5222 33.5095 19.9579 33.6145 20.3999 33.6145C20.8418 33.6145 21.2776 33.5095 21.6717 33.308C21.8166 33.2426 21.9418 33.1396 22.0344 33.0097C22.1271 32.8797 22.1839 32.7273 22.1991 32.5681C22.1991 32.2903 22.1911 31.9009 22.1911 31.319C22.1755 31.4778 22.1185 31.6297 22.0259 31.7593C21.9333 31.8888 21.8083 31.9914 21.6637 32.0567Z" fill="#002B4E"/>
<path d="M42.5444 19.4783C42.5295 19.6376 42.4729 19.79 42.3804 19.92C42.2878 20.05 42.1627 20.1529 42.0177 20.2182C41.6234 20.4197 41.1876 20.5247 40.7455 20.5247C40.3034 20.5247 39.8676 20.4197 39.4733 20.2182L26.7686 12.8117C26.6266 12.7465 26.4904 12.6489 26.3985 12.5218C26.3066 12.3948 26.2466 12.2528 26.2285 12.0967C26.2285 12.3171 26.2344 13.096 26.2344 13.3326C26.2494 13.4918 26.306 13.6442 26.3985 13.7742C26.491 13.9041 26.761 14.0725 26.761 14.0725L39.4806 21.471C39.8749 21.6725 40.3107 21.7775 40.7528 21.7775C41.1949 21.7775 41.6307 21.6725 42.025 21.471C42.1699 21.4056 42.295 21.3027 42.3875 21.1727C42.48 21.0427 42.5367 20.8903 42.5517 20.7311C42.5531 20.4534 42.5444 19.4783 42.5444 19.4783Z" fill="#002B4E"/>
<path d="M35.226 24.155C34.8318 24.3565 34.4038 24.472 33.9618 24.472C33.5197 24.472 33.0838 24.367 32.6896 24.1656L26.7574 20.6964C26.6124 20.6311 26.4831 20.5439 26.3906 20.4139C26.298 20.2839 26.2414 20.1314 26.2266 19.9722C26.2266 19.9722 26.2339 20.9458 26.2339 21.2213C26.2491 21.3806 26.3059 21.5329 26.3985 21.6629C26.4912 21.7928 26.7613 21.9612 26.7613 21.9612C26.7613 21.9612 32.3034 25.2132 32.6976 25.4147C33.0919 25.6162 33.5277 25.7211 33.9698 25.7211C34.4119 25.7211 34.8477 25.6162 35.242 25.4147C35.3868 25.3492 35.5118 25.2462 35.6043 25.1162C35.6968 24.9863 35.7535 24.834 35.7686 24.6748C35.7686 24.397 35.7606 23.4256 35.7606 23.4256C35.7456 23.5849 35.689 23.7372 35.5964 23.8672C35.5039 23.9972 35.3709 24.0896 35.226 24.155Z" fill="#002B4E"/>
<path d="M28.4506 28.1111C28.0564 28.3126 27.6205 28.4176 27.1785 28.4176C26.7364 28.4176 26.3005 28.3126 25.9063 28.1111L16.592 22.6737C16.4472 22.6082 16.3074 22.5177 16.2149 22.3877C16.1224 22.2578 16.0657 22.1055 16.0505 21.9463C16.0505 21.9463 16.0586 22.9199 16.0586 23.1954C16.0738 23.3545 16.1306 23.5066 16.2231 23.6364C16.3156 23.7663 16.4405 23.8691 16.5852 23.9346C16.5852 23.9346 25.5201 29.161 25.9143 29.3624C26.3086 29.5639 26.7444 29.6689 27.1865 29.6689C27.6286 29.6689 28.0644 29.5639 28.4587 29.3624C28.6035 29.2969 28.7285 29.1939 28.821 29.064C28.9135 28.934 28.9702 28.7817 28.9853 28.6225C28.9853 28.3448 28.9773 27.3734 28.9773 27.3734C28.9618 27.5322 28.9049 27.684 28.8124 27.8136C28.72 27.9431 28.5951 28.0458 28.4506 28.1111Z" fill="#002B4E"/>
<g filter="url(#filter0_d_220_15536)">
<path d="M13.9129 7.63796C13.7681 7.57242 13.6431 7.46944 13.5506 7.33948C13.4581 7.20952 13.4013 7.05722 13.3862 6.89804C13.4015 6.7389 13.4583 6.58666 13.5507 6.45673C13.6432 6.3268 13.7682 6.22378 13.9129 6.15811L18.1532 3.69218C18.5475 3.49073 18.9833 3.38574 19.4254 3.38574C19.8675 3.38574 20.3033 3.49073 20.6976 3.69218L24.9387 6.15811C25.0835 6.22366 25.2085 6.32664 25.301 6.4566C25.3935 6.58655 25.4502 6.73886 25.4653 6.89804C25.4501 7.0573 25.3933 7.20966 25.3007 7.33962C25.208 7.46959 25.0829 7.57252 24.9379 7.63796C24.5438 7.83941 24.1081 7.9444 23.6661 7.9444C23.2242 7.9444 22.7884 7.83941 22.3943 7.63796L21.2235 6.95756V15.7749C21.2082 15.9342 21.1513 16.0864 21.0587 16.2164C20.9661 16.3463 20.841 16.4493 20.6961 16.5149C20.3051 16.7237 19.8679 16.8291 19.4254 16.8213H11.0461V25.1464C11.0531 25.2929 11.0115 25.4377 10.9279 25.5578C10.8268 25.7028 10.695 25.8232 10.542 25.9105C10.3578 26.0182 10.1586 26.0977 9.95117 26.1464C9.48892 26.2581 9.00701 26.2581 8.54477 26.1464C8.3373 26.0977 8.13817 26.0182 7.9539 25.9105C7.80124 25.8231 7.66951 25.7029 7.56802 25.5586C7.48504 25.4378 7.44354 25.2931 7.44984 25.1464V15.7764C7.46505 15.6173 7.52178 15.4652 7.61429 15.3353C7.70679 15.2055 7.83177 15.1026 7.97652 15.0372C8.36753 14.8277 8.80516 14.7223 9.24797 14.7308H17.6273V6.95756L16.4565 7.63796C16.0622 7.83942 15.6264 7.94441 15.1843 7.94441C14.7422 7.94441 14.3071 7.83942 13.9129 7.63796ZM14.8794 28.1119C15.2737 27.9105 15.7095 27.8055 16.1516 27.8055C16.5937 27.8055 17.0295 27.9105 17.4238 28.1119L21.6641 30.5779C21.8175 30.6304 21.9507 30.7299 22.045 30.8625C22.1394 30.9952 22.1901 31.1543 22.1901 31.3174C22.1901 31.4806 22.1394 31.6397 22.045 31.7723C21.9507 31.9049 21.8175 32.0045 21.6641 32.057C21.2699 32.2587 20.8341 32.3638 20.3919 32.3638C19.9498 32.3638 19.5139 32.2587 19.1198 32.057L14.8748 29.5911C14.8748 29.5911 14.5921 29.4388 14.4974 29.3061C14.4028 29.1734 14.3519 29.0141 14.3519 28.8508C14.3519 28.6874 14.4028 28.5281 14.4974 28.3954C14.5921 28.2627 14.7257 28.1641 14.8794 28.1119ZM19.1198 21.205C18.7255 21.0035 18.2897 20.8985 17.8476 20.8985C17.4055 20.8985 16.9697 21.0035 16.5754 21.205C16.4218 21.2573 16.2883 21.3568 16.1937 21.4896C16.0992 21.6223 16.0483 21.7815 16.0483 21.9449C16.0483 22.1083 16.0992 22.2675 16.1937 22.4003C16.2883 22.533 16.5754 22.6848 16.5754 22.6848L25.9045 28.1097C26.2987 28.3112 26.7346 28.4162 27.1767 28.4162C27.6187 28.4162 28.0546 28.3112 28.4488 28.1097C28.6022 28.0572 28.7354 27.9577 28.8298 27.8251C28.9241 27.6924 28.9748 27.5333 28.9748 27.3702C28.9748 27.207 28.9241 27.0479 28.8298 26.9153C28.7354 26.7827 28.6022 26.6831 28.4488 26.6306L19.1198 21.205ZM26.7528 19.2321C27.1417 19.0343 27.5829 18.9257 28.025 18.9257C28.4671 18.9257 28.903 19.0306 29.2972 19.2321L35.2336 22.6856C35.2336 22.6856 35.5201 22.8376 35.6145 22.9703C35.7088 23.1029 35.7595 23.262 35.7595 23.4251C35.7595 23.5883 35.7088 23.7474 35.6145 23.88C35.5201 24.0126 35.2336 24.1647 35.2336 24.1647C34.8393 24.3661 34.4035 24.4711 33.9614 24.4711C33.5193 24.4711 33.0834 24.3661 32.6892 24.1647L26.7528 20.7112C26.7528 20.7112 26.4657 20.5594 26.3712 20.4266C26.2766 20.2939 26.2258 20.1346 26.2258 19.9713C26.2258 19.8079 26.2766 19.6487 26.3712 19.5159C26.4657 19.3832 26.6288 19.2962 26.7528 19.2321ZM29.2972 11.3405C28.903 11.1391 28.4671 11.0341 28.025 11.0341C27.5829 11.0341 27.1471 11.1391 26.7528 11.3405C26.608 11.4061 26.483 11.5091 26.3905 11.639C26.298 11.769 26.2413 11.9213 26.2262 12.0805C26.2413 12.2396 26.298 12.3919 26.3905 12.5219C26.483 12.6519 26.7528 12.8204 26.7528 12.8204L39.4739 20.2196C39.8682 20.4211 40.304 20.5261 40.7461 20.5261C41.1882 20.5261 41.624 20.4211 42.0183 20.2196C42.1686 20.1428 42.3049 20.0676 42.3992 19.935C42.4935 19.8023 42.5443 19.6432 42.5443 19.4801C42.5443 19.3169 42.4935 19.1578 42.3992 19.0252C42.3049 18.8926 42.1555 18.8047 42.0183 18.7405L29.2972 11.3405Z" fill="#185CFF"/>
</g>
<defs>
<filter id="filter0_d_220_15536" x="6.32919" y="3.38574" width="37.335" height="32.8981" filterUnits="userSpaceOnUse" color-interpolation-filters="sRGB">
<feFlood flood-opacity="0" result="BackgroundImageFix"/>
<feColorMatrix in="SourceAlpha" type="matrix" values="0 0 0 0 0 0 0 0 0 0 0 0 0 0 0 0 0 0 127 0" result="hardAlpha"/>
<feOffset dy="2.80007"/>
<feGaussianBlur stdDeviation="0.560014"/>
<feComposite in2="hardAlpha" operator="out"/>
<feColorMatrix type="matrix" values="0 0 0 0 0.0156863 0 0 0 0 0.133333 0 0 0 0 0.227451 0 0 0 0.3 0"/>
<feBlend mode="normal" in2="BackgroundImageFix" result="effect1_dropShadow_220_15536"/>
<feBlend mode="normal" in="SourceGraphic" in2="effect1_dropShadow_220_15536" result="shape"/>
</filter>
</defs>
</svg>
