<svg width="50" height="37" viewBox="0 0 50 37" fill="none" xmlns="http://www.w3.org/2000/svg">
<path d="M4.67082 16.9C4.32799 16.6255 4.04897 16.2797 3.8531 15.8866C3.65723 15.4935 3.54921 15.0625 3.53651 14.6235C3.51917 15.6302 3.66855 16.6328 3.97859 17.5907C4.15919 17.3152 4.39488 17.08 4.67082 16.9V16.9Z" fill="#002B4E"/>
<path d="M36.0656 25.9152C36.0665 25.9433 36.0647 25.9715 36.0601 25.9993C35.9429 26.57 35.6971 27.1065 35.3415 27.5681C34.9859 28.0296 34.5298 28.404 34.0078 28.6628C31.7756 29.8172 29.2585 30.3049 26.7567 30.0677C25.1425 29.9793 23.5511 29.6462 22.037 29.0797C21.0823 29.3913 20.089 29.5692 19.0855 29.6084C16.9363 29.6381 14.8136 29.1312 12.9098 28.1334C11.5101 27.279 10.2388 26.2302 9.13397 25.0184C9.00663 24.7974 8.92028 24.5551 8.87911 24.3034C8.84237 24.0623 8.8645 23.8159 8.94361 23.5852C8.98723 23.4622 9.04505 23.3447 9.11588 23.2351C7.34358 22.7738 5.74503 21.8038 4.51728 20.445C4.06213 19.9427 3.7772 19.3095 3.70312 18.6357C3.7165 19.1628 3.722 19.936 3.72122 20.0021C3.71099 20.8074 3.99424 21.589 4.51807 22.2007C5.68738 23.4855 7.19325 24.4169 8.86495 24.8894C8.81409 25.5311 8.90708 26.1761 9.13712 26.7773C9.81991 27.8668 11.8903 29.3016 12.9129 29.8915C14.7886 30.9623 16.9315 31.4741 19.0887 31.3665C20.0921 31.3272 21.0853 31.1496 22.0401 30.8386C23.5545 31.4041 25.1458 31.7372 26.7598 31.8266C29.2617 32.064 31.779 31.5759 34.0109 30.4209C34.5331 30.1622 34.9894 29.7879 35.3452 29.3264C35.7009 28.8648 35.9468 28.3282 36.064 27.7574C36.0674 27.7361 36.0693 27.7145 36.0695 27.6929C36.0687 27.6111 36.0837 26.1779 36.0656 25.9152Z" fill="#002B4E"/>
<path d="M45.609 15.7281C45.6563 15.0815 45.6616 14.4325 45.6247 13.7852C45.6247 13.8473 45.6169 13.9079 45.6082 13.9684C45.5005 14.6221 45.1787 15.2214 44.6934 15.6723C44.9573 15.8916 45.2003 16.1349 45.4194 16.3991C45.5139 16.1855 45.5777 15.9596 45.609 15.7281V15.7281Z" fill="#002B4E"/>
<path d="M43.9651 22.581C42.5365 23.3166 40.9602 23.72 39.3539 23.7609C39.1645 23.7729 38.9743 23.7597 38.7883 23.7216C38.6192 23.6893 38.4564 23.63 38.3061 23.5462L32.0422 19.9277L12.5568 8.67898C12.4648 8.63488 12.3836 8.57107 12.3191 8.49209C12.2545 8.4131 12.2081 8.32088 12.1831 8.22195C12.1698 8.14329 12.1595 8.06463 12.1532 7.98597C12.1532 7.94664 12.1477 7.90731 12.147 7.86719C12.1312 8.21252 12.147 9.75508 12.1831 9.98478C12.2081 10.0839 12.2545 10.1763 12.3193 10.2555C12.384 10.3346 12.4653 10.3985 12.5576 10.4426L32.043 21.6913L38.3069 25.3098C38.4571 25.3935 38.6196 25.4529 38.7883 25.486C38.9744 25.5232 39.1645 25.5365 39.3539 25.5253C40.9601 25.4837 42.5363 25.0804 43.9651 24.3454C46.0953 23.1151 46.4988 20.5656 46.4587 19.1875C46.4076 20.336 45.7303 21.5623 43.9651 22.581Z" fill="#002B4E"/>
<g filter="url(#filter0_d_220_15535)">
<path d="M35.9897 25.8055C35.9123 25.6895 35.8078 25.5942 35.6852 25.5278L18.7469 15.7485L16.5813 14.4986L9.93591 10.6622C9.6917 10.5302 9.4204 10.4562 9.14299 10.4459C8.72049 10.4198 8.29683 10.4185 7.87417 10.4419C7.39406 10.4589 6.92312 10.5783 6.49286 10.792C5.80951 11.1259 5.201 11.595 4.70412 12.1709C4.20724 12.7467 3.83231 13.4173 3.60202 14.1422V14.1422C3.55795 14.3432 3.53553 14.5484 3.53516 14.7542C3.54696 15.1941 3.65457 15.6261 3.85048 16.02C4.04639 16.414 4.32588 16.7605 4.66947 17.0354C4.43048 17.1793 4.22345 17.3706 4.06112 17.5974C3.89879 17.8243 3.78458 18.082 3.72552 18.3546C3.70545 18.467 3.69597 18.581 3.6972 18.6952C3.75188 19.3985 4.04075 20.0632 4.51765 20.5831C5.7454 21.942 7.34395 22.9119 9.11625 23.3732C9.04542 23.4828 8.9876 23.6003 8.94398 23.7233C8.86487 23.954 8.84274 24.2004 8.87948 24.4415C8.90319 24.5856 8.9433 24.7265 8.99904 24.8615C9.00912 24.8961 9.02201 24.9298 9.03759 24.9622C9.42151 25.544 9.87216 26.0789 10.3804 26.5559C10.4921 26.6503 10.6163 26.7463 10.7406 26.8415L10.8319 26.9201C11.495 27.4144 12.1883 27.8668 12.9078 28.2747C14.7835 29.3455 16.9264 29.8573 19.0836 29.7496C20.087 29.7104 21.0803 29.5325 22.035 29.221C23.5491 29.7874 25.1405 30.1206 26.7547 30.209C29.2565 30.4465 31.7738 29.9588 34.0058 28.8041C34.5291 28.5446 34.9861 28.1689 35.3421 27.7058C35.6981 27.2427 35.9435 26.7044 36.0597 26.1319C36.0698 26.0731 36.0676 26.0129 36.0534 25.9549C36.0406 25.9019 36.019 25.8514 35.9897 25.8055Z" fill="#185CFF"/>
<path d="M46.3971 18.5269C46.1509 17.4521 45.5478 16.4924 44.6862 15.8044C45.1732 15.3542 45.4967 14.7548 45.6057 14.1006C45.6241 13.9629 45.6299 13.8239 45.623 13.6852C45.575 12.698 44.8812 11.592 43.05 10.5387C41.4069 9.5292 39.6087 8.79728 37.7277 8.37237C36.8878 8.20144 36.0268 8.1598 35.1743 8.24887C34.9627 8.27326 34.7598 8.3063 34.5647 8.34642C33.2299 7.03315 31.5577 6.11484 29.7332 5.69314C28.4811 5.33569 27.1798 5.18112 25.8788 5.23532C25.0887 5.26483 24.3122 5.4498 23.5936 5.77966C21.9875 5.22168 20.2812 5.0112 18.5876 5.16216C16.5548 5.28878 14.5744 5.85878 12.7854 6.83217C12.6316 6.91198 12.4973 7.02491 12.3923 7.16283C12.2873 7.30075 12.2142 7.46023 12.1782 7.6298C12.1483 7.79269 12.1409 7.9589 12.1561 8.1238C12.1624 8.20246 12.1727 8.28113 12.186 8.35979C12.211 8.45871 12.2574 8.55094 12.3219 8.62992C12.3865 8.7089 12.4677 8.77271 12.5597 8.81682L32.0451 20.0655L34.818 21.6663L38.309 23.6816C38.4593 23.7655 38.6221 23.8247 38.7912 23.8571C38.9772 23.8952 39.1674 23.9084 39.3568 23.8964C40.9631 23.8555 42.5394 23.4521 43.968 22.7165C45.8716 21.6152 46.5111 20.2779 46.4631 19.0492C46.4548 18.8737 46.4327 18.699 46.3971 18.5269V18.5269Z" fill="#185CFF"/>
</g>
<defs>
<filter id="filter0_d_220_15535" x="2.41513" y="5.11475" width="45.1705" height="29.6329" filterUnits="userSpaceOnUse" color-interpolation-filters="sRGB">
<feFlood flood-opacity="0" result="BackgroundImageFix"/>
<feColorMatrix in="SourceAlpha" type="matrix" values="0 0 0 0 0 0 0 0 0 0 0 0 0 0 0 0 0 0 127 0" result="hardAlpha"/>
<feOffset dy="3.36008"/>
<feGaussianBlur stdDeviation="0.560014"/>
<feComposite in2="hardAlpha" operator="out"/>
<feColorMatrix type="matrix" values="0 0 0 0 0.0156863 0 0 0 0 0.133333 0 0 0 0 0.227451 0 0 0 0.3 0"/>
<feBlend mode="normal" in2="BackgroundImageFix" result="effect1_dropShadow_220_15535"/>
<feBlend mode="normal" in="SourceGraphic" in2="effect1_dropShadow_220_15535" result="shape"/>
</filter>
</defs>
</svg>
