<svg width="50" height="37" viewBox="0 0 50 37" fill="none" xmlns="http://www.w3.org/2000/svg">
<path d="M14.2798 12.8571C14.914 12.5235 15.6149 12.3496 16.3258 12.3496C17.0367 12.3496 17.7376 12.5235 18.3718 12.8571C18.5632 12.9719 18.7355 13.118 18.882 13.2898C19.0841 13.0785 19.2031 12.7966 19.2159 12.4992C19.1914 12.2353 19.1 11.9828 18.9512 11.7675C18.8023 11.5521 18.6011 11.3815 18.3682 11.273C17.7342 10.9388 17.0332 10.7646 16.3222 10.7646C15.6112 10.7646 14.9102 10.9388 14.2762 11.273C14.0434 11.3816 13.8424 11.5522 13.6936 11.7675C13.5449 11.9829 13.4007 12.1606 13.415 12.4872C13.4281 12.7861 13.5426 13.0999 13.7455 13.3122C13.8936 13.1392 14.087 12.9732 14.2798 12.8571Z" fill="#002B4E"/>
<path d="M42.3594 26.3792C42.3351 26.6431 42.2341 26.8706 42.0853 27.0859C41.9366 27.3013 41.7487 27.4775 41.5158 27.5861C40.8867 27.9334 40.2034 28.1014 39.491 28.0875H35.7446C35.0322 28.1017 34.3096 27.9529 33.6805 27.6054L22.4828 20.8943C20.1261 21.3056 17.717 21.2679 15.3734 20.7831C13.3137 20.4085 11.3719 19.5219 9.71376 18.199C9.10561 17.7395 8.60439 17.1442 8.24697 16.457C7.88955 15.7698 7.68502 15.0081 7.64844 14.228V14.2346C7.64844 14.2346 7.66014 15.343 7.64844 15.7028C7.66711 16.5027 7.86366 17.2873 8.22272 17.9953C8.58179 18.7033 9.09363 19.3155 9.71826 19.784C11.3754 21.1053 13.3155 21.9912 15.3734 22.3662C17.7171 22.8506 20.1261 22.8883 22.4828 22.4774L33.6787 29.1904C34.3079 29.5377 35.0119 29.7127 35.7243 29.6988H39.4653C40.1776 29.7128 40.8817 29.5378 41.5108 29.1904C41.7437 29.0819 41.9449 28.9113 42.0938 28.696C42.2427 28.4806 42.334 28.2281 42.3585 27.9642" fill="#002B4E"/>
<g filter="url(#filter0_d_220_15537)">
<path d="M35.1234 18.5731H36.5705C36.9265 18.5661 37.2784 18.6536 37.5928 18.8273C37.7095 18.8812 37.8102 18.9665 37.8847 19.0742C37.9592 19.1819 38.0047 19.3083 38.0167 19.4404V21.1749H39.4637C40.176 21.1607 40.8801 21.3354 41.5093 21.6824C41.7423 21.7909 41.9436 21.9617 42.0925 22.1772C42.2414 22.3927 42.3326 22.6454 42.357 22.9095V26.3786C42.3327 26.6424 42.2415 26.8948 42.0927 27.1102C41.944 27.3255 41.743 27.4962 41.5102 27.6047C40.8812 27.9525 40.1771 28.1275 39.4646 28.1131H35.7228C35.0104 28.1273 34.3063 27.9523 33.6772 27.6047L22.4795 20.8945C20.1228 21.3059 17.7137 21.2682 15.3701 20.7833C13.3104 20.4088 11.3686 19.5222 9.71045 18.1993C9.08552 17.731 8.57345 17.1189 8.21435 16.4109C7.85526 15.7028 7.65889 14.918 7.64062 14.118C7.71006 13.3094 7.95304 12.5272 8.35171 11.8289C8.75037 11.1306 9.2946 10.5338 9.94443 10.0826C11.6673 8.80055 13.6557 7.95614 15.7498 7.61719C18.1023 7.18245 20.5112 7.19511 22.8592 7.65457C24.9366 8.01055 26.9023 8.87556 28.5936 10.1779C29.2307 10.6377 29.7586 11.2422 30.1374 11.9454C30.5161 12.6487 30.7357 13.4322 30.7795 14.2367V15.9731H33.6727C34.0291 15.9662 34.3812 16.0537 34.6959 16.2273C34.8124 16.2814 34.913 16.3667 34.9873 16.4744C35.0616 16.5821 35.1071 16.7085 35.1189 16.8404V18.5731H35.1234ZM19.2118 12.4984C19.1873 12.2345 19.096 11.9821 18.9471 11.7667C18.7982 11.5513 18.5971 11.3808 18.3641 11.2723C17.7301 10.9381 17.0291 10.7639 16.3181 10.7639C15.6071 10.7639 14.9062 10.9381 14.2722 11.2723C14.0393 11.3808 13.8383 11.5514 13.6896 11.7668C13.5409 11.9822 13.4028 12.2538 13.4253 12.4984C13.4496 12.7624 13.5408 13.015 13.6895 13.2305C13.8382 13.446 14.0393 13.6168 14.2722 13.7255C14.9063 14.0591 15.6072 14.233 16.3181 14.233C17.029 14.233 17.73 14.0591 18.3641 13.7255C18.597 13.6167 18.7981 13.4459 18.947 13.2304C19.0958 13.0149 19.1872 12.7624 19.2118 12.4984Z" fill="#185CFF"/>
</g>
<defs>
<filter id="filter0_d_220_15537" x="6.5206" y="7.30029" width="36.9564" height="25.2936" filterUnits="userSpaceOnUse" color-interpolation-filters="sRGB">
<feFlood flood-opacity="0" result="BackgroundImageFix"/>
<feColorMatrix in="SourceAlpha" type="matrix" values="0 0 0 0 0 0 0 0 0 0 0 0 0 0 0 0 0 0 127 0" result="hardAlpha"/>
<feOffset dy="3.36008"/>
<feGaussianBlur stdDeviation="0.560014"/>
<feComposite in2="hardAlpha" operator="out"/>
<feColorMatrix type="matrix" values="0 0 0 0 0.0156863 0 0 0 0 0.133333 0 0 0 0 0.227451 0 0 0 0.3 0"/>
<feBlend mode="normal" in2="BackgroundImageFix" result="effect1_dropShadow_220_15537"/>
<feBlend mode="normal" in="SourceGraphic" in2="effect1_dropShadow_220_15537" result="shape"/>
</filter>
</defs>
</svg>
