<svg width="50" height="37" viewBox="0 0 50 37" fill="none" xmlns="http://www.w3.org/2000/svg">
<path d="M16.9574 14.6925C16.4412 14.4115 15.8644 14.2668 15.2793 14.2714C14.6889 14.2547 14.1035 14.3856 13.574 14.6525C13.3542 14.7653 13.1598 14.9236 13.0034 15.1173C12.8757 15.2753 12.8007 15.4706 12.7892 15.675C12.7856 15.8782 12.8474 16.077 12.9651 16.241C13.0315 16.336 13.1089 16.4225 13.1957 16.4985C13.3112 16.3938 13.4381 16.303 13.574 16.228C14.1035 15.961 14.6889 15.8302 15.2793 15.8469C15.8644 15.8423 16.4412 15.987 16.9574 16.268C17.0672 16.3324 17.1706 16.4074 17.2664 16.492C17.3898 16.3956 17.4903 16.2721 17.5605 16.1306C17.6307 15.9892 17.6688 15.8335 17.672 15.675C17.6443 15.4629 17.5642 15.2614 17.4392 15.0896C17.3142 14.9177 17.1484 14.7811 16.9574 14.6925V14.6925Z" fill="#002B4E"/>
<path d="M23.1624 11.0378C22.646 10.7576 22.0693 10.6132 21.4844 10.6177C20.8943 10.6007 20.3092 10.7312 19.7799 10.9978C19.5599 11.1107 19.3653 11.2689 19.2085 11.4626C19.0808 11.6206 19.0058 11.8159 18.9943 12.0203C18.991 12.2234 19.0528 12.4221 19.1702 12.5863C19.2365 12.6814 19.314 12.7678 19.4008 12.8438C19.5161 12.7382 19.6434 12.6471 19.7799 12.5724C20.3092 12.3059 20.8943 12.1751 21.4844 12.1913C22.0694 12.1871 22.6461 12.3319 23.1624 12.6124C23.2722 12.6771 23.3757 12.7524 23.4714 12.8373C23.5948 12.7409 23.6954 12.6174 23.7656 12.476C23.8358 12.3345 23.8739 12.1788 23.877 12.0203C23.8491 11.8083 23.7689 11.6069 23.6439 11.4351C23.5189 11.2633 23.3533 11.1266 23.1624 11.0378V11.0378Z" fill="#002B4E"/>
<path d="M10.2178 11.7441L11.5039 10.9866L10.4694 10.3769C10.3613 10.3251 10.2665 10.2483 10.1926 10.1526C10.1187 10.057 10.0677 9.945 10.0437 9.82568C10.0437 9.82568 10.02 11.1976 10.0437 11.4058C10.0664 11.5341 10.1272 11.6522 10.2178 11.7441V11.7441Z" fill="#002B4E"/>
<path d="M30.8473 15.8336C31.2012 15.6715 31.5067 15.4168 31.7329 15.0954C31.9591 14.774 32.0979 14.3973 32.1352 14.0035V12.4233C32.0979 12.8171 31.9591 13.1938 31.7329 13.5153C31.5067 13.8367 31.2012 14.0914 30.8473 14.2535L19.1058 21.1614C18.1499 21.6797 17.0801 21.9408 15.9977 21.9199C14.9152 21.9407 13.8455 21.6797 12.8895 21.1614L6.66877 17.4983C6.29652 17.2914 5.97157 17.0063 5.71537 16.6618C5.504 16.3759 5.3869 16.029 5.38086 15.671V17.2511C5.3869 17.6091 5.504 17.956 5.71537 18.2419C5.97157 18.5864 6.29652 18.8715 6.66877 19.0785L12.8895 22.7415C13.8455 23.2598 14.9152 23.5208 15.9977 23.5C17.0801 23.5209 18.1499 23.2599 19.1058 22.7415L30.8473 15.8336Z" fill="#002B4E"/>
<path d="M44.5981 17.8936C44.6067 18.0487 44.6009 18.2043 44.5808 18.3583C44.2755 20.7248 42.0861 23.081 38.0939 25.4307C34.4557 27.677 30.3354 28.985 26.0898 29.2416C25.0503 29.2894 24.0091 29.2032 22.9908 28.9851C22.0676 28.795 21.179 28.4598 20.3567 27.9915L19.1025 27.2535C18.7488 27.0913 18.4435 26.8366 18.2176 26.5151C17.9917 26.1937 17.8533 25.817 17.8164 25.4233C17.8164 25.4233 17.8164 26.3175 17.8164 27.0034C17.8533 27.3971 17.9917 27.7738 18.2176 28.0953C18.4435 28.4167 18.7488 28.6714 19.1025 28.8336L20.3567 29.5716C21.179 30.0399 22.0676 30.3751 22.9908 30.5652C24.0091 30.7834 25.0503 30.8695 26.0898 30.8218C30.3354 30.5651 34.4557 29.2571 38.0939 27.0109C42.0861 24.6611 44.2755 22.3049 44.5808 19.9384C44.6262 19.2577 44.632 18.5749 44.5981 17.8936V17.8936Z" fill="#002B4E"/>
<g filter="url(#filter0_d_220_15540)">
<path d="M34.9922 14.2421C35.4387 13.9876 35.9188 13.7998 36.4177 13.6844C37.5243 13.4217 38.6753 13.4217 39.782 13.6844C40.2812 13.7998 40.7615 13.9876 41.2084 14.2421L42.4571 14.9773C43.1318 15.3509 43.7097 15.8826 44.1433 16.5286C44.4995 17.0637 44.6542 17.712 44.579 18.3541C44.2737 20.7206 42.0843 23.0768 38.0921 25.4266C34.4539 27.6728 30.3336 28.9809 26.088 29.2375C25.0486 29.2853 24.0073 29.1991 22.989 28.9809C22.0658 28.7908 21.1772 28.4556 20.3549 27.9873L19.1007 27.2493C18.747 27.0872 18.4417 26.8324 18.2158 26.511C17.9899 26.1895 17.8515 25.8128 17.8146 25.4191C17.8522 25.0255 17.9911 24.6491 18.2173 24.3278C18.4434 24.0066 18.7488 23.752 19.1025 23.5899L34.9931 14.2412L34.9922 14.2421ZM10.3397 9.24797L10.4691 9.16153C10.7572 9.00348 11.0781 8.91747 11.4052 8.91057C11.7422 8.8934 12.0787 8.95276 12.3905 9.08438L12.5409 9.16153L13.5745 9.77127L18.4053 6.92426C19.3613 6.40635 20.431 6.14562 21.5134 6.16673C22.5957 6.1455 23.6655 6.40623 24.6215 6.92426L30.845 10.5883C31.1988 10.7505 31.5042 11.0052 31.7302 11.3266C31.9562 11.648 32.0949 12.0247 32.132 12.4184C32.0958 12.8127 31.9579 13.1901 31.7323 13.5123C31.5068 13.8346 31.2016 14.0902 30.8477 14.2532L19.1062 21.1612C18.1503 21.6795 17.0805 21.9405 15.9981 21.9196C14.9156 21.9405 13.8459 21.6794 12.89 21.1612L6.66918 17.4981C6.29693 17.2911 5.97198 17.006 5.71578 16.6615C5.49876 16.3787 5.38086 16.0299 5.38086 15.6707C5.38086 15.3116 5.49876 14.9627 5.71578 14.6799C5.97244 14.3358 6.29729 14.0508 6.66918 13.8433L11.5 10.9963L10.4654 10.3866C10.3572 10.3349 10.2624 10.2582 10.1885 10.1625C10.1146 10.0668 10.0637 9.95477 10.0398 9.8354C10.0344 9.72051 10.059 9.60622 10.111 9.50417C10.1631 9.40212 10.2407 9.31596 10.336 9.25448L10.4654 9.1671L10.3342 9.2554L10.3397 9.24797ZM13.5754 14.652C13.3556 14.7648 13.1612 14.923 13.0048 15.1167C12.8771 15.2747 12.8021 15.4701 12.7906 15.6744C12.787 15.8777 12.8488 16.0765 12.9665 16.2405C13.1098 16.4383 13.2936 16.602 13.5052 16.7201C13.7603 16.8656 14.0348 16.9723 14.3201 17.0371C14.6351 17.1106 14.9576 17.1455 15.2807 17.1412C15.6021 17.1381 15.9218 17.0956 16.2332 17.0147C16.5128 16.9444 16.7802 16.831 17.0262 16.6783C17.2117 16.5845 17.3694 16.4422 17.4832 16.2658C17.5969 16.0893 17.6625 15.8853 17.6734 15.6744C17.6464 15.4615 17.5666 15.2591 17.4416 15.0864C17.3165 14.9136 17.1504 14.7763 16.9588 14.6873C16.4426 14.4064 15.8658 14.2616 15.2807 14.2663C14.6899 14.251 14.1045 14.3834 13.5754 14.652ZM19.7825 10.9973C19.5623 11.1098 19.3676 11.2681 19.211 11.462C19.0833 11.62 19.0083 11.8153 18.9968 12.0197C18.9936 12.2229 19.0553 12.4216 19.1727 12.5857C19.3163 12.7834 19.5 12.947 19.7114 13.0654C19.9665 13.2108 20.241 13.3176 20.5263 13.3823C21.1572 13.5275 21.8128 13.5198 22.4403 13.36C22.7195 13.2891 22.9865 13.1757 23.2324 13.0235C23.418 12.9299 23.5757 12.7875 23.6895 12.6111C23.8032 12.4347 23.8688 12.2305 23.8795 12.0197C23.8525 11.8067 23.7727 11.6042 23.6477 11.4313C23.5226 11.2585 23.3565 11.1209 23.165 11.0317C22.6486 10.7515 22.0718 10.6071 21.4869 10.6115C20.8962 10.5971 20.311 10.7305 19.7825 11V10.9973Z" fill="#185CFF"/>
</g>
<defs>
<filter id="filter0_d_220_15540" x="4.25965" y="6.16553" width="41.4592" height="27.0092" filterUnits="userSpaceOnUse" color-interpolation-filters="sRGB">
<feFlood flood-opacity="0" result="BackgroundImageFix"/>
<feColorMatrix in="SourceAlpha" type="matrix" values="0 0 0 0 0 0 0 0 0 0 0 0 0 0 0 0 0 0 127 0" result="hardAlpha"/>
<feOffset dy="2.80303"/>
<feGaussianBlur stdDeviation="0.560606"/>
<feComposite in2="hardAlpha" operator="out"/>
<feColorMatrix type="matrix" values="0 0 0 0 0.0156863 0 0 0 0 0.133333 0 0 0 0 0.227451 0 0 0 0.3 0"/>
<feBlend mode="normal" in2="BackgroundImageFix" result="effect1_dropShadow_220_15540"/>
<feBlend mode="normal" in="SourceGraphic" in2="effect1_dropShadow_220_15540" result="shape"/>
</filter>
</defs>
</svg>
