<svg width="50" height="37" viewBox="0 0 50 37" fill="none" xmlns="http://www.w3.org/2000/svg">
<g clip-path="url(#clip0_220_15538)">
<path d="M25.0038 26.5511L43.3978 16.2252V14.832L25.0038 25.1579L13.1797 18.5207V19.9138L25.0038 26.5511Z" fill="#002B4E"/>
<path d="M49.0783 16.4712C49.0693 16.5638 49.0351 16.6525 48.9793 16.7281C48.9235 16.8037 48.848 16.8635 48.7606 16.9014L25.7689 29.8096C25.5315 29.9271 25.2688 29.9883 25.0024 29.9883C24.7359 29.9883 24.4733 29.9271 24.2358 29.8096L1.24415 16.9023C1.15609 16.8646 1.07967 16.8053 1.02246 16.7301C0.965245 16.6549 0.929226 16.5665 0.917969 16.4737C0.917969 16.4737 0.917969 17.7029 0.917969 17.8668C0.929226 17.9597 0.965245 18.0481 1.02246 18.1233C1.07967 18.1985 1.15609 18.2578 1.24415 18.2954L24.2392 31.2028C24.4767 31.3203 24.7393 31.3815 25.0057 31.3815C25.2722 31.3815 25.5348 31.3203 25.7723 31.2028L48.764 18.2954C48.8514 18.2575 48.9269 18.1977 48.9827 18.1221C49.0385 18.0465 49.0727 17.9578 49.0817 17.8652L49.0783 16.4712Z" fill="#002B4E"/>
<g filter="url(#filter0_d_220_15538)">
<path d="M2.75983 16.0319C2.52207 15.9122 2.25713 15.8528 1.98948 15.859C1.72417 15.8557 1.46243 15.9186 1.22924 16.0417C1.14286 16.0805 1.06866 16.1409 1.01429 16.2168C0.959924 16.2928 0.927349 16.3814 0.919922 16.4736C0.931179 16.5665 0.967198 16.6549 1.02441 16.7301C1.08162 16.8053 1.15804 16.8646 1.2461 16.9022L24.2386 29.8096C24.4761 29.927 24.7387 29.9883 25.0052 29.9883C25.2716 29.9883 25.5343 29.927 25.7717 29.8096L48.7634 16.9022C48.856 16.8719 48.9365 16.814 48.9935 16.7368C49.0506 16.6596 49.0812 16.567 49.0812 16.472C49.0812 16.3769 49.0506 16.2843 48.9935 16.2071C48.9365 16.1299 48.856 16.0721 48.7634 16.0417C48.5258 15.9248 48.2632 15.8638 47.9968 15.8638C47.7305 15.8638 47.4679 15.9248 47.2303 16.0417L25.0014 28.518L2.75983 16.0319ZM43.3954 14.8321L27.3015 5.79778C27.1392 5.71019 26.9608 5.6545 26.7764 5.63388C26.5769 5.60851 26.3745 5.61488 26.1771 5.65273C26.0019 5.68375 25.8354 5.7502 25.6883 5.84777C25.5739 5.91941 25.4919 6.03079 25.459 6.15919L24.006 13.4922L16.2865 14.6748C16.1332 14.6963 15.9846 14.742 15.8465 14.81C15.7332 14.8631 15.6353 14.9428 15.5616 15.0419L13.1781 18.5191L25.0014 25.1572L43.3954 14.8321Z" fill="#185CFF"/>
</g>
</g>
<defs>
<filter id="filter0_d_220_15538" x="-0.200106" y="5.61865" width="50.4014" height="28.2897" filterUnits="userSpaceOnUse" color-interpolation-filters="sRGB">
<feFlood flood-opacity="0" result="BackgroundImageFix"/>
<feColorMatrix in="SourceAlpha" type="matrix" values="0 0 0 0 0 0 0 0 0 0 0 0 0 0 0 0 0 0 127 0" result="hardAlpha"/>
<feOffset dy="2.80007"/>
<feGaussianBlur stdDeviation="0.560014"/>
<feComposite in2="hardAlpha" operator="out"/>
<feColorMatrix type="matrix" values="0 0 0 0 0.0156863 0 0 0 0 0.133333 0 0 0 0 0.227451 0 0 0 0.3 0"/>
<feBlend mode="normal" in2="BackgroundImageFix" result="effect1_dropShadow_220_15538"/>
<feBlend mode="normal" in="SourceGraphic" in2="effect1_dropShadow_220_15538" result="shape"/>
</filter>
<clipPath id="clip0_220_15538">
<rect width="50" height="37" fill="white"/>
</clipPath>
</defs>
</svg>
